<svg xmlns="http://www.w3.org/2000/svg" width="730" height="440" fill="none" viewBox="0 0 730 440"><path stroke="#94A3B8" stroke-dasharray="6 6" stroke-opacity=".5" d="M210.5 58L210.5 376M312.5 58L312.5 376M414.5 58V376M516.5 58L516.5 376M111 73.6822H618V352.477H111V73.6822Z"/><path fill="#94A3B8" d="M291.929 19.875V18.3636H300.935V19.875H297.304V30H295.554V19.875H291.929ZM303.789 30.1932C303.236 30.1932 302.736 30.0909 302.289 29.8864C301.842 29.678 301.488 29.3769 301.226 28.983C300.969 28.589 300.84 28.1061 300.84 27.5341C300.84 27.0417 300.935 26.6364 301.124 26.3182C301.313 26 301.569 25.7481 301.891 25.5625C302.213 25.3769 302.573 25.2367 302.971 25.142C303.368 25.0473 303.774 24.9754 304.187 24.9261C304.709 24.8655 305.134 24.8163 305.459 24.7784C305.785 24.7367 306.022 24.6705 306.169 24.5795C306.317 24.4886 306.391 24.3409 306.391 24.1364V24.0966C306.391 23.6004 306.251 23.2159 305.971 22.9432C305.694 22.6705 305.281 22.5341 304.732 22.5341C304.16 22.5341 303.709 22.661 303.38 22.9148C303.054 23.1648 302.829 23.4432 302.704 23.75L301.107 23.3864C301.296 22.8561 301.573 22.428 301.937 22.1023C302.304 21.7727 302.726 21.5341 303.204 21.3864C303.681 21.2348 304.183 21.1591 304.709 21.1591C305.058 21.1591 305.427 21.2008 305.817 21.2841C306.211 21.3636 306.579 21.5114 306.919 21.7273C307.264 21.9432 307.546 22.2519 307.766 22.6534C307.986 23.0511 308.096 23.5682 308.096 24.2045V30H306.437V28.8068H306.368C306.259 29.0265 306.094 29.2424 305.874 29.4545C305.654 29.6667 305.372 29.8428 305.027 29.983C304.683 30.1231 304.27 30.1932 303.789 30.1932ZM304.158 28.8295C304.628 28.8295 305.029 28.7367 305.363 28.5511C305.7 28.3655 305.955 28.1231 306.13 27.8239C306.308 27.5208 306.397 27.197 306.397 26.8523V25.7273C306.336 25.7879 306.219 25.8447 306.044 25.8977C305.874 25.947 305.679 25.9905 305.459 26.0284C305.24 26.0625 305.026 26.0947 304.817 26.125C304.609 26.1515 304.435 26.1742 304.294 26.1932C303.965 26.2348 303.664 26.3049 303.391 26.4034C303.122 26.5019 302.906 26.6439 302.743 26.8295C302.584 27.0114 302.505 27.2538 302.505 27.5568C302.505 27.9773 302.66 28.2955 302.971 28.5114C303.281 28.7235 303.677 28.8295 304.158 28.8295ZM316.546 23.4034L315.006 23.6761C314.942 23.4792 314.84 23.2917 314.7 23.1136C314.563 22.9356 314.378 22.7898 314.143 22.6761C313.908 22.5625 313.614 22.5057 313.262 22.5057C312.781 22.5057 312.38 22.6136 312.058 22.8295C311.736 23.0417 311.575 23.3163 311.575 23.6534C311.575 23.9451 311.683 24.1799 311.898 24.358C312.114 24.536 312.463 24.6818 312.944 24.7955L314.33 25.1136C315.133 25.2992 315.732 25.5852 316.126 25.9716C316.52 26.358 316.717 26.8598 316.717 27.4773C316.717 28 316.565 28.4659 316.262 28.875C315.963 29.2803 315.544 29.5985 315.006 29.8295C314.472 30.0606 313.853 30.1761 313.148 30.1761C312.171 30.1761 311.374 29.9678 310.756 29.5511C310.139 29.1307 309.76 28.5341 309.62 27.7614L311.262 27.5114C311.364 27.9394 311.575 28.2633 311.893 28.483C312.211 28.6989 312.626 28.8068 313.137 28.8068C313.694 28.8068 314.139 28.6913 314.472 28.4602C314.806 28.2254 314.972 27.9394 314.972 27.6023C314.972 27.3295 314.87 27.1004 314.666 26.9148C314.465 26.7292 314.156 26.589 313.739 26.4943L312.262 26.1705C311.448 25.9848 310.845 25.6894 310.455 25.2841C310.069 24.8788 309.876 24.3655 309.876 23.7443C309.876 23.2292 310.02 22.7784 310.308 22.392C310.595 22.0057 310.993 21.7045 311.501 21.4886C312.008 21.2689 312.59 21.1591 313.245 21.1591C314.188 21.1591 314.931 21.3636 315.472 21.7727C316.014 22.178 316.372 22.7216 316.546 23.4034ZM319.795 27.0398L319.784 24.9659H320.079L323.556 21.2727H325.59L321.625 25.4773H321.358L319.795 27.0398ZM318.233 30V18.3636H319.931V30H318.233ZM323.744 30L320.619 25.8523L321.789 24.6648L325.829 30H323.744ZM338.681 22.0398C338.571 21.6951 338.423 21.3864 338.237 21.1136C338.056 20.8371 337.838 20.6023 337.584 20.4091C337.33 20.2121 337.04 20.0625 336.715 19.9602C336.393 19.858 336.038 19.8068 335.652 19.8068C334.997 19.8068 334.406 19.9754 333.879 20.3125C333.353 20.6496 332.936 21.1439 332.629 21.7955C332.326 22.4432 332.175 23.2367 332.175 24.1761C332.175 25.1193 332.328 25.9167 332.635 26.5682C332.942 27.2197 333.362 27.714 333.896 28.0511C334.431 28.3883 335.038 28.5568 335.72 28.5568C336.353 28.5568 336.904 28.428 337.374 28.1705C337.847 27.9129 338.213 27.5492 338.47 27.0795C338.732 26.6061 338.862 26.0492 338.862 25.4091L339.317 25.4943H335.987V24.0455H340.561V25.3693C340.561 26.3466 340.353 27.1951 339.936 27.9148C339.523 28.6307 338.951 29.1837 338.22 29.5739C337.493 29.964 336.66 30.1591 335.72 30.1591C334.667 30.1591 333.743 29.9167 332.948 29.4318C332.156 28.947 331.538 28.2595 331.095 27.3693C330.652 26.4754 330.431 25.4148 330.431 24.1875C330.431 23.2595 330.559 22.4261 330.817 21.6875C331.074 20.9489 331.436 20.322 331.902 19.8068C332.372 19.2879 332.923 18.892 333.556 18.6193C334.192 18.3428 334.887 18.2045 335.641 18.2045C336.27 18.2045 336.855 18.2973 337.396 18.483C337.942 18.6686 338.427 18.9318 338.851 19.2727C339.279 19.6136 339.633 20.0189 339.913 20.4886C340.194 20.9545 340.383 21.4716 340.482 22.0398H338.681ZM342.302 30V21.2727H343.944V22.6591H344.035C344.194 22.1894 344.474 21.8201 344.875 21.5511C345.281 21.2784 345.739 21.142 346.25 21.142C346.356 21.142 346.481 21.1458 346.625 21.1534C346.773 21.161 346.889 21.1705 346.972 21.1818V22.8068C346.904 22.7879 346.783 22.767 346.608 22.7443C346.434 22.7178 346.26 22.7045 346.086 22.7045C345.684 22.7045 345.326 22.7898 345.012 22.9602C344.701 23.1269 344.455 23.3598 344.273 23.6591C344.091 23.9545 344 24.2917 344 24.6705V30H342.302ZM350.552 30.1932C349.999 30.1932 349.499 30.0909 349.052 29.8864C348.605 29.678 348.251 29.3769 347.989 28.983C347.732 28.589 347.603 28.1061 347.603 27.5341C347.603 27.0417 347.698 26.6364 347.887 26.3182C348.076 26 348.332 25.7481 348.654 25.5625C348.976 25.3769 349.336 25.2367 349.734 25.142C350.131 25.0473 350.537 24.9754 350.95 24.9261C351.472 24.8655 351.897 24.8163 352.222 24.7784C352.548 24.7367 352.785 24.6705 352.932 24.5795C353.08 24.4886 353.154 24.3409 353.154 24.1364V24.0966C353.154 23.6004 353.014 23.2159 352.734 22.9432C352.457 22.6705 352.044 22.5341 351.495 22.5341C350.923 22.5341 350.472 22.661 350.143 22.9148C349.817 23.1648 349.592 23.4432 349.467 23.75L347.87 23.3864C348.059 22.8561 348.336 22.428 348.7 22.1023C349.067 21.7727 349.489 21.5341 349.967 21.3864C350.444 21.2348 350.946 21.1591 351.472 21.1591C351.821 21.1591 352.19 21.2008 352.58 21.2841C352.974 21.3636 353.342 21.5114 353.682 21.7273C354.027 21.9432 354.309 22.2519 354.529 22.6534C354.749 23.0511 354.859 23.5682 354.859 24.2045V30H353.2V28.8068H353.131C353.022 29.0265 352.857 29.2424 352.637 29.4545C352.417 29.6667 352.135 29.8428 351.79 29.983C351.446 30.1231 351.033 30.1932 350.552 30.1932ZM350.921 28.8295C351.391 28.8295 351.792 28.7367 352.126 28.5511C352.463 28.3655 352.718 28.1231 352.893 27.8239C353.071 27.5208 353.16 27.197 353.16 26.8523V25.7273C353.099 25.7879 352.982 25.8447 352.807 25.8977C352.637 25.947 352.442 25.9905 352.222 26.0284C352.003 26.0625 351.789 26.0947 351.58 26.125C351.372 26.1515 351.198 26.1742 351.057 26.1932C350.728 26.2348 350.427 26.3049 350.154 26.4034C349.885 26.5019 349.669 26.6439 349.506 26.8295C349.347 27.0114 349.268 27.2538 349.268 27.5568C349.268 27.9773 349.423 28.2955 349.734 28.5114C350.044 28.7235 350.44 28.8295 350.921 28.8295ZM356.769 33.2727V21.2727H358.429V22.6875H358.571C358.669 22.5057 358.811 22.2955 358.997 22.0568C359.182 21.8182 359.44 21.6098 359.769 21.4318C360.099 21.25 360.535 21.1591 361.076 21.1591C361.781 21.1591 362.41 21.3371 362.963 21.6932C363.516 22.0492 363.949 22.5625 364.264 23.233C364.582 23.9034 364.741 24.7102 364.741 25.6534C364.741 26.5966 364.584 27.4053 364.269 28.0795C363.955 28.75 363.523 29.267 362.974 29.6307C362.425 29.9905 361.798 30.1705 361.093 30.1705C360.563 30.1705 360.129 30.0814 359.792 29.9034C359.459 29.7254 359.197 29.517 359.008 29.2784C358.819 29.0398 358.673 28.8277 358.571 28.642H358.468V33.2727H356.769ZM358.434 25.6364C358.434 26.25 358.523 26.7879 358.701 27.25C358.879 27.7121 359.137 28.0739 359.474 28.3352C359.811 28.5928 360.224 28.7216 360.713 28.7216C361.22 28.7216 361.644 28.5871 361.985 28.3182C362.326 28.0455 362.584 27.6761 362.758 27.2102C362.936 26.7443 363.025 26.2197 363.025 25.6364C363.025 25.0606 362.938 24.5436 362.764 24.0852C362.593 23.6269 362.336 23.2652 361.991 23C361.65 22.7348 361.224 22.6023 360.713 22.6023C360.22 22.6023 359.804 22.7292 359.463 22.983C359.125 23.2367 358.87 23.5909 358.696 24.0455C358.521 24.5 358.434 25.0303 358.434 25.6364ZM367.991 24.8182V30H366.292V18.3636H367.969V22.6932H368.077C368.281 22.2235 368.594 21.8504 369.014 21.5739C369.434 21.2973 369.984 21.1591 370.662 21.1591C371.26 21.1591 371.783 21.2822 372.23 21.5284C372.681 21.7746 373.029 22.142 373.275 22.6307C373.525 23.1155 373.65 23.7216 373.65 24.4489V30H371.952V24.6534C371.952 24.0133 371.787 23.517 371.457 23.1648C371.128 22.8087 370.669 22.6307 370.082 22.6307C369.681 22.6307 369.321 22.7159 369.003 22.8864C368.688 23.0568 368.44 23.3068 368.258 23.6364C368.08 23.9621 367.991 24.3561 367.991 24.8182Z"/><path fill="#94A3B8" d="M58.4999 286.386L46.8635 286.386L46.8635 282.238C46.8635 281.333 47.0283 280.583 47.3578 279.988C47.6874 279.393 48.1381 278.948 48.7101 278.653C49.2783 278.357 49.9184 278.21 50.6306 278.21C51.3465 278.21 51.9904 278.359 52.5624 278.659C53.1306 278.954 53.5813 279.401 53.9147 279.999C54.2442 280.594 54.409 281.342 54.409 282.244L54.409 285.096L52.9203 285.096L52.9203 282.403C52.9203 281.831 52.8218 281.367 52.6249 281.011C52.4241 280.655 52.1514 280.393 51.8067 280.227C51.462 280.06 51.07 279.977 50.6306 279.977C50.1912 279.977 49.801 280.06 49.4601 280.227C49.1192 280.393 48.8521 280.657 48.659 281.017C48.4658 281.373 48.3692 281.842 48.3692 282.426L48.3692 284.63L58.4999 284.63L58.4999 286.386ZM58.6931 274.178C58.6931 274.731 58.5908 275.231 58.3862 275.678C58.1779 276.125 57.8768 276.479 57.4828 276.741C57.0889 276.998 56.6059 277.127 56.034 277.127C55.5415 277.127 55.1362 277.032 54.8181 276.843C54.4999 276.654 54.248 276.398 54.0624 276.076C53.8768 275.754 53.7366 275.394 53.6419 274.996C53.5472 274.599 53.4753 274.193 53.426 273.78C53.3654 273.258 53.3162 272.833 53.2783 272.508C53.2366 272.182 53.1703 271.945 53.0794 271.798C52.9885 271.65 52.8408 271.576 52.6362 271.576L52.5965 271.576C52.1003 271.576 51.7158 271.716 51.4431 271.996C51.1703 272.273 51.034 272.686 51.034 273.235C51.034 273.807 51.1609 274.258 51.4146 274.587C51.6646 274.913 51.9431 275.138 52.2499 275.263L51.8862 276.86C51.3559 276.671 50.9279 276.394 50.6021 276.03C50.2726 275.663 50.034 275.241 49.8862 274.763C49.7347 274.286 49.659 273.784 49.659 273.258C49.659 272.909 49.7006 272.54 49.784 272.15C49.8635 271.756 50.0112 271.388 50.2271 271.048C50.4431 270.703 50.7518 270.421 51.1533 270.201C51.551 269.981 52.0681 269.871 52.7044 269.871L58.4999 269.871L58.4999 271.53L57.3067 271.53L57.3067 271.599C57.5264 271.708 57.7423 271.873 57.9544 272.093C58.1665 272.313 58.3427 272.595 58.4828 272.94C58.623 273.284 58.6931 273.697 58.6931 274.178ZM57.3294 273.809C57.3294 273.339 57.2366 272.938 57.051 272.604C56.8654 272.267 56.623 272.012 56.3237 271.837C56.0207 271.659 55.6968 271.57 55.3521 271.57L54.2271 271.57C54.2878 271.631 54.3446 271.748 54.3976 271.923C54.4468 272.093 54.4904 272.288 54.5283 272.508C54.5624 272.727 54.5946 272.941 54.6249 273.15C54.6514 273.358 54.6741 273.532 54.6931 273.673C54.7347 274.002 54.8048 274.303 54.9033 274.576C55.0018 274.845 55.1438 275.061 55.3294 275.224C55.5112 275.383 55.7537 275.462 56.0567 275.462C56.4772 275.462 56.7953 275.307 57.0112 274.996C57.2234 274.686 57.3294 274.29 57.3294 273.809ZM58.4999 267.961L49.7726 267.961L49.7726 266.319L51.159 266.319L51.159 266.228C50.6893 266.069 50.32 265.788 50.051 265.387C49.7783 264.981 49.6419 264.523 49.6419 264.012C49.6419 263.906 49.6457 263.781 49.6533 263.637C49.6609 263.489 49.6703 263.373 49.6817 263.29L51.3067 263.29C51.2878 263.358 51.2669 263.48 51.2442 263.654C51.2177 263.828 51.2044 264.002 51.2044 264.176C51.2044 264.578 51.2896 264.936 51.4601 265.25C51.6268 265.561 51.8597 265.807 52.159 265.989C52.4544 266.171 52.7915 266.262 53.1703 266.262L58.4999 266.262L58.4999 267.961ZM58.6931 259.71C58.6931 260.263 58.5908 260.763 58.3862 261.21C58.1779 261.657 57.8768 262.011 57.4828 262.273C57.0889 262.53 56.6059 262.659 56.034 262.659C55.5415 262.659 55.1362 262.564 54.8181 262.375C54.4999 262.186 54.248 261.93 54.0624 261.608C53.8768 261.286 53.7366 260.926 53.6419 260.528C53.5472 260.131 53.4753 259.725 53.426 259.313C53.3654 258.79 53.3162 258.366 53.2783 258.04C53.2366 257.714 53.1703 257.477 53.0794 257.33C52.9885 257.182 52.8408 257.108 52.6362 257.108L52.5965 257.108C52.1003 257.108 51.7158 257.248 51.4431 257.528C51.1703 257.805 51.034 258.218 51.034 258.767C51.034 259.339 51.1609 259.79 51.4146 260.119C51.6646 260.445 51.9431 260.671 52.2499 260.796L51.8862 262.392C51.3559 262.203 50.9279 261.926 50.6021 261.563C50.2726 261.195 50.034 260.773 49.8862 260.296C49.7347 259.818 49.659 259.316 49.659 258.79C49.659 258.441 49.7006 258.072 49.784 257.682C49.8635 257.288 50.0112 256.921 50.2271 256.58C50.4431 256.235 50.7518 255.953 51.1533 255.733C51.551 255.513 52.0681 255.403 52.7044 255.403L58.4999 255.403L58.4999 257.063L57.3067 257.063L57.3067 257.131C57.5264 257.241 57.7423 257.405 57.9544 257.625C58.1665 257.845 58.3427 258.127 58.4828 258.472C58.623 258.816 58.6931 259.229 58.6931 259.71ZM57.3294 259.341C57.3294 258.871 57.2366 258.47 57.051 258.136C56.8654 257.799 56.623 257.544 56.3237 257.369C56.0207 257.191 55.6968 257.102 55.3521 257.102L54.2271 257.102C54.2878 257.163 54.3446 257.28 54.3976 257.455C54.4468 257.625 54.4904 257.82 54.5283 258.04C54.5624 258.26 54.5946 258.474 54.6249 258.682C54.6514 258.89 54.6741 259.064 54.6931 259.205C54.7347 259.534 54.8048 259.835 54.9033 260.108C55.0018 260.377 55.1438 260.593 55.3294 260.756C55.5112 260.915 55.7537 260.994 56.0567 260.994C56.4771 260.994 56.7953 260.839 57.0112 260.528C57.2234 260.218 57.3294 259.822 57.3294 259.341ZM46.8635 251.794L58.4999 251.794L58.4999 253.493L46.8635 253.493L46.8635 251.794ZM46.8635 248.161L58.4999 248.161L58.4999 249.86L46.8635 249.86L46.8635 248.161ZM58.676 242.467C58.676 243.326 58.4923 244.067 58.1249 244.688C57.7537 245.306 57.2328 245.783 56.5624 246.12C55.8881 246.453 55.0984 246.62 54.1931 246.62C53.2991 246.62 52.5112 246.453 51.8294 246.12C51.1476 245.783 50.6154 245.313 50.2328 244.711C49.8503 244.105 49.659 243.397 49.659 242.586C49.659 242.093 49.7404 241.616 49.9033 241.154C50.0662 240.692 50.3218 240.277 50.6703 239.91C51.0188 239.542 51.4715 239.253 52.0283 239.04C52.5813 238.828 53.2537 238.722 54.0453 238.722L54.6476 238.722L54.6476 245.66L53.3749 245.66L53.3749 240.387C52.9279 240.387 52.5321 240.478 52.1874 240.66C51.8389 240.842 51.5643 241.097 51.3635 241.427C51.1628 241.753 51.0624 242.135 51.0624 242.575C51.0624 243.052 51.1798 243.468 51.4146 243.825C51.6457 244.177 51.9487 244.45 52.3237 244.643C52.695 244.832 53.0984 244.927 53.534 244.927L54.5283 244.927C55.1116 244.927 55.6078 244.825 56.0169 244.62C56.426 244.412 56.7385 244.122 56.9544 243.751C57.1665 243.379 57.2726 242.946 57.2726 242.45C57.2726 242.128 57.2271 241.834 57.1362 241.569C57.0415 241.304 56.9014 241.075 56.7158 240.881C56.5302 240.688 56.301 240.54 56.0283 240.438L56.3181 238.83C56.7915 238.959 57.2063 239.19 57.5624 239.523C57.9146 239.853 58.1893 240.268 58.3862 240.768C58.5794 241.264 58.676 241.83 58.676 242.467ZM46.8635 235.49L58.4999 235.49L58.4999 237.189L46.8635 237.189L46.8635 235.49ZM58.4999 229.538L46.8635 229.538L46.8635 225.39C46.8635 224.485 47.0283 223.735 47.3578 223.14C47.6874 222.546 48.1381 222.101 48.7101 221.805C49.2783 221.51 49.9184 221.362 50.6306 221.362C51.3465 221.362 51.9904 221.512 52.5624 221.811C53.1306 222.106 53.5813 222.553 53.9146 223.152C54.2442 223.747 54.409 224.495 54.409 225.396L54.409 228.248L52.9203 228.248L52.9203 225.555C52.9203 224.983 52.8218 224.519 52.6249 224.163C52.4241 223.807 52.1514 223.546 51.8067 223.379C51.462 223.212 51.07 223.129 50.6306 223.129C50.1912 223.129 49.801 223.212 49.4601 223.379C49.1192 223.546 48.8521 223.809 48.659 224.169C48.4658 224.525 48.3692 224.995 48.3692 225.578L48.3692 227.783L58.4999 227.783L58.4999 229.538ZM58.4999 219.792L49.7726 219.792L49.7726 218.15L51.159 218.15L51.159 218.059C50.6893 217.9 50.32 217.62 50.051 217.218C49.7783 216.813 49.6419 216.355 49.6419 215.843C49.6419 215.737 49.6457 215.612 49.6533 215.468C49.6609 215.321 49.6703 215.205 49.6817 215.122L51.3067 215.122C51.2878 215.19 51.2669 215.311 51.2442 215.485C51.2177 215.66 51.2044 215.834 51.2044 216.008C51.2044 216.41 51.2896 216.768 51.4601 217.082C51.6268 217.393 51.8597 217.639 52.159 217.821C52.4544 218.002 52.7915 218.093 53.1703 218.093L58.4999 218.093L58.4999 219.792ZM58.676 210.64C58.676 211.458 58.4885 212.172 58.1135 212.782C57.7385 213.392 57.2139 213.865 56.5396 214.202C55.8654 214.54 55.0775 214.708 54.176 214.708C53.2707 214.708 52.479 214.54 51.801 214.202C51.123 213.865 50.5965 213.392 50.2215 212.782C49.8465 212.172 49.659 211.458 49.659 210.64C49.659 209.822 49.8465 209.108 50.2215 208.498C50.5965 207.888 51.123 207.415 51.801 207.077C52.479 206.74 53.2707 206.572 54.176 206.572C55.0775 206.572 55.8654 206.74 56.5396 207.077C57.2139 207.415 57.7385 207.888 58.1135 208.498C58.4885 209.108 58.676 209.822 58.676 210.64ZM57.2499 210.634C57.2499 210.104 57.1097 209.665 56.8294 209.316C56.5491 208.968 56.176 208.71 55.7101 208.543C55.2442 208.373 54.7309 208.288 54.1703 208.288C53.6135 208.288 53.1021 208.373 52.6362 208.543C52.1665 208.71 51.7896 208.968 51.5056 209.316C51.2215 209.665 51.0794 210.104 51.0794 210.634C51.0794 211.168 51.2215 211.612 51.5056 211.964C51.7896 212.312 52.1665 212.572 52.6362 212.742C53.1021 212.909 53.6135 212.992 54.1703 212.992C54.7309 212.992 55.2442 212.909 55.7101 212.742C56.176 212.572 56.5491 212.312 56.8294 211.964C57.1097 211.612 57.2499 211.168 57.2499 210.634ZM58.676 201.351C58.676 202.196 58.4847 202.923 58.1021 203.533C57.7158 204.139 57.1836 204.605 56.5056 204.931C55.8275 205.257 55.051 205.42 54.176 205.42C53.2896 205.42 52.5074 205.253 51.8294 204.92C51.1476 204.586 50.6154 204.116 50.2328 203.51C49.8503 202.904 49.659 202.19 49.659 201.368C49.659 200.705 49.7821 200.115 50.0283 199.596C50.2707 199.077 50.6116 198.658 51.051 198.34C51.4904 198.018 52.0037 197.827 52.5908 197.766L52.5908 199.42C52.1817 199.51 51.8294 199.719 51.534 200.045C51.2385 200.366 51.0908 200.798 51.0908 201.34C51.0908 201.813 51.2158 202.228 51.4658 202.584C51.712 202.937 52.0643 203.211 52.5226 203.408C52.9771 203.605 53.515 203.704 54.1362 203.704C54.7726 203.704 55.3218 203.607 55.784 203.414C56.2461 203.221 56.604 202.948 56.8578 202.596C57.1116 202.24 57.2385 201.821 57.2385 201.34C57.2385 201.018 57.1798 200.726 57.0624 200.465C56.9412 200.2 56.7688 199.978 56.5453 199.8C56.3218 199.618 56.0529 199.491 55.7385 199.42L55.7385 197.766C56.3029 197.827 56.8067 198.01 57.2499 198.317C57.6931 198.624 58.0415 199.035 58.2953 199.55C58.5491 200.062 58.676 200.662 58.676 201.351ZM58.676 192.54C58.676 193.4 58.4923 194.14 58.1249 194.762C57.7537 195.379 57.2328 195.856 56.5624 196.193C55.8881 196.527 55.0984 196.693 54.1931 196.693C53.2991 196.693 52.5112 196.527 51.8294 196.193C51.1476 195.856 50.6154 195.387 50.2328 194.784C49.8503 194.178 49.659 193.47 49.659 192.659C49.659 192.167 49.7404 191.69 49.9033 191.227C50.0662 190.765 50.3218 190.351 50.6703 189.983C51.0188 189.616 51.4715 189.326 52.0283 189.114C52.5813 188.902 53.2537 188.796 54.0453 188.796L54.6476 188.796L54.6476 195.733L53.3749 195.733L53.3749 190.46C52.9279 190.46 52.5321 190.551 52.1874 190.733C51.8389 190.915 51.5643 191.171 51.3635 191.5C51.1628 191.826 51.0624 192.209 51.0624 192.648C51.0624 193.125 51.1798 193.542 51.4146 193.898C51.6457 194.25 51.9487 194.523 52.3237 194.716C52.6949 194.905 53.0984 195 53.534 195L54.5283 195C55.1116 195 55.6078 194.898 56.0169 194.693C56.426 194.485 56.7385 194.195 56.9544 193.824C57.1665 193.453 57.2726 193.019 57.2726 192.523C57.2726 192.201 57.2271 191.907 57.1362 191.642C57.0415 191.377 56.9014 191.148 56.7158 190.955C56.5302 190.762 56.301 190.614 56.0283 190.512L56.3181 188.904C56.7915 189.032 57.2063 189.263 57.5624 189.597C57.9146 189.926 58.1893 190.341 58.3862 190.841C58.5794 191.337 58.676 191.904 58.676 192.54ZM51.9033 180.723L52.176 182.263C51.979 182.327 51.7915 182.429 51.6135 182.57C51.4355 182.706 51.2896 182.891 51.176 183.126C51.0624 183.361 51.0056 183.655 51.0056 184.007C51.0056 184.488 51.1135 184.89 51.3294 185.212C51.5415 185.534 51.8162 185.695 52.1533 185.695C52.4449 185.695 52.6798 185.587 52.8578 185.371C53.0359 185.155 53.1817 184.806 53.2953 184.325L53.6135 182.939C53.7991 182.136 54.0851 181.537 54.4715 181.143C54.8578 180.749 55.3597 180.552 55.9771 180.552C56.4999 180.552 56.9658 180.704 57.3749 181.007C57.7802 181.306 58.0984 181.725 58.3294 182.263C58.5605 182.797 58.676 183.416 58.676 184.121C58.676 185.098 58.4677 185.895 58.051 186.513C57.6306 187.13 57.034 187.509 56.2612 187.649L56.0112 186.007C56.4393 185.905 56.7631 185.695 56.9828 185.376C57.1987 185.058 57.3067 184.643 57.3067 184.132C57.3067 183.575 57.1912 183.13 56.9601 182.797C56.7253 182.463 56.4393 182.297 56.1021 182.297C55.8294 182.297 55.6003 182.399 55.4146 182.604C55.229 182.804 55.0889 183.113 54.9942 183.53L54.6703 185.007C54.4847 185.821 54.1893 186.424 53.784 186.814C53.3787 187.2 52.8654 187.393 52.2442 187.393C51.729 187.393 51.2783 187.249 50.8919 186.962C50.5056 186.674 50.2044 186.276 49.9885 185.768C49.7688 185.261 49.659 184.679 49.659 184.024C49.659 183.081 49.8635 182.338 50.2726 181.797C50.6779 181.255 51.2215 180.897 51.9033 180.723ZM51.9033 172.497L52.176 174.037C51.979 174.101 51.7915 174.203 51.6135 174.343C51.4355 174.48 51.2896 174.665 51.176 174.9C51.0624 175.135 51.0056 175.429 51.0056 175.781C51.0056 176.262 51.1135 176.663 51.3294 176.985C51.5415 177.307 51.8162 177.468 52.1533 177.468C52.4449 177.468 52.6798 177.36 52.8578 177.145C53.0359 176.929 53.1817 176.58 53.2953 176.099L53.6135 174.713C53.7991 173.91 54.0851 173.311 54.4715 172.917C54.8578 172.523 55.3597 172.326 55.9771 172.326C56.4999 172.326 56.9658 172.478 57.3749 172.781C57.7802 173.08 58.0984 173.499 58.3294 174.037C58.5605 174.571 58.676 175.19 58.676 175.895C58.676 176.872 58.4677 177.669 58.051 178.287C57.6306 178.904 57.034 179.283 56.2612 179.423L56.0112 177.781C56.4393 177.679 56.7631 177.468 56.9828 177.15C57.1987 176.832 57.3067 176.417 57.3067 175.906C57.3067 175.349 57.1912 174.904 56.9601 174.571C56.7253 174.237 56.4393 174.071 56.1021 174.071C55.8294 174.071 55.6003 174.173 55.4146 174.377C55.229 174.578 55.0889 174.887 54.9942 175.304L54.6703 176.781C54.4847 177.595 54.1893 178.198 53.784 178.588C53.3787 178.974 52.8654 179.167 52.2442 179.167C51.729 179.167 51.2783 179.023 50.8919 178.735C50.5056 178.448 50.2044 178.05 49.9885 177.542C49.7688 177.035 49.659 176.453 49.659 175.798C49.659 174.855 49.8635 174.112 50.2726 173.571C50.6779 173.029 51.2215 172.671 51.9033 172.497ZM58.676 167.049C58.676 167.909 58.4923 168.649 58.1249 169.271C57.7537 169.888 57.2328 170.365 56.5624 170.703C55.8881 171.036 55.0984 171.203 54.1931 171.203C53.2991 171.203 52.5112 171.036 51.8294 170.703C51.1476 170.365 50.6154 169.896 50.2328 169.293C49.8503 168.687 49.659 167.979 49.659 167.168C49.659 166.676 49.7404 166.199 49.9033 165.737C50.0662 165.274 50.3218 164.86 50.6703 164.492C51.0188 164.125 51.4715 163.835 52.0283 163.623C52.5813 163.411 53.2537 163.305 54.0453 163.305L54.6476 163.305L54.6476 170.242L53.3749 170.242L53.3749 164.97C52.9279 164.97 52.5321 165.06 52.1874 165.242C51.8389 165.424 51.5643 165.68 51.3635 166.009C51.1628 166.335 51.0624 166.718 51.0624 167.157C51.0624 167.634 51.1798 168.051 51.4146 168.407C51.6457 168.759 51.9487 169.032 52.3237 169.225C52.6949 169.415 53.0984 169.509 53.534 169.509L54.5283 169.509C55.1116 169.509 55.6078 169.407 56.0169 169.203C56.426 168.994 56.7385 168.704 56.9544 168.333C57.1665 167.962 57.2726 167.528 57.2726 167.032C57.2726 166.71 57.2271 166.417 57.1362 166.151C57.0415 165.886 56.9014 165.657 56.7158 165.464C56.5302 165.271 56.301 165.123 56.0283 165.021L56.3181 163.413C56.7915 163.542 57.2063 163.773 57.5624 164.106C57.9146 164.435 58.1893 164.85 58.3862 165.35C58.5794 165.846 58.676 166.413 58.676 167.049ZM51.9033 155.232L52.176 156.772C51.979 156.836 51.7915 156.939 51.6135 157.079C51.4355 157.215 51.2896 157.401 51.176 157.635C51.0624 157.87 51.0056 158.164 51.0056 158.516C51.0056 158.997 51.1135 159.399 51.3294 159.721C51.5415 160.043 51.8162 160.204 52.1533 160.204C52.4449 160.204 52.6798 160.096 52.8578 159.88C53.0359 159.664 53.1817 159.315 53.2953 158.834L53.6135 157.448C53.7991 156.645 54.0851 156.046 54.4715 155.653C54.8578 155.259 55.3597 155.062 55.9771 155.062C56.4999 155.062 56.9658 155.213 57.3749 155.516C57.7802 155.815 58.0984 156.234 58.3294 156.772C58.5605 157.306 58.676 157.925 58.676 158.63C58.676 159.607 58.4677 160.404 58.051 161.022C57.6306 161.639 57.034 162.018 56.2612 162.158L56.0112 160.516C56.4393 160.414 56.7631 160.204 56.9828 159.885C57.1987 159.567 57.3067 159.153 57.3067 158.641C57.3067 158.084 57.1912 157.639 56.9601 157.306C56.7253 156.973 56.4393 156.806 56.1021 156.806C55.8294 156.806 55.6003 156.908 55.4146 157.113C55.229 157.314 55.0889 157.622 54.9942 158.039L54.6703 159.516C54.4847 160.331 54.1893 160.933 53.784 161.323C53.3787 161.709 52.8654 161.903 52.2442 161.903C51.729 161.903 51.2783 161.759 50.8919 161.471C50.5056 161.183 50.2044 160.785 49.9885 160.278C49.7688 159.77 49.659 159.189 49.659 158.533C49.659 157.59 49.8635 156.848 50.2726 156.306C50.6779 155.764 51.2215 155.406 51.9033 155.232Z"/><path fill="#94A3B8" d="M116.393 400.193C115.496 400.189 114.729 399.953 114.092 399.483C113.456 399.013 112.969 398.33 112.632 397.432C112.295 396.534 112.126 395.453 112.126 394.188C112.126 392.926 112.295 391.848 112.632 390.955C112.973 390.061 113.462 389.379 114.098 388.909C114.738 388.439 115.503 388.205 116.393 388.205C117.283 388.205 118.047 388.441 118.683 388.915C119.319 389.384 119.806 390.066 120.143 390.96C120.484 391.85 120.655 392.926 120.655 394.188C120.655 395.456 120.486 396.54 120.149 397.438C119.812 398.331 119.325 399.015 118.689 399.489C118.052 399.958 117.287 400.193 116.393 400.193ZM116.393 398.676C117.181 398.676 117.797 398.292 118.24 397.523C118.687 396.754 118.91 395.642 118.91 394.188C118.91 393.222 118.808 392.405 118.604 391.739C118.403 391.068 118.113 390.561 117.734 390.216C117.359 389.867 116.912 389.693 116.393 389.693C115.609 389.693 114.994 390.08 114.547 390.852C114.1 391.625 113.874 392.737 113.871 394.188C113.871 395.157 113.971 395.977 114.172 396.648C114.376 397.314 114.666 397.82 115.041 398.165C115.416 398.506 115.867 398.676 116.393 398.676ZM128.881 393.403L127.341 393.676C127.277 393.479 127.174 393.292 127.034 393.114C126.898 392.936 126.712 392.79 126.477 392.676C126.243 392.562 125.949 392.506 125.597 392.506C125.116 392.506 124.714 392.614 124.392 392.83C124.07 393.042 123.909 393.316 123.909 393.653C123.909 393.945 124.017 394.18 124.233 394.358C124.449 394.536 124.797 394.682 125.279 394.795L126.665 395.114C127.468 395.299 128.066 395.585 128.46 395.972C128.854 396.358 129.051 396.86 129.051 397.477C129.051 398 128.9 398.466 128.597 398.875C128.297 399.28 127.879 399.598 127.341 399.83C126.807 400.061 126.188 400.176 125.483 400.176C124.506 400.176 123.708 399.968 123.091 399.551C122.474 399.131 122.095 398.534 121.955 397.761L123.597 397.511C123.699 397.939 123.909 398.263 124.227 398.483C124.546 398.699 124.96 398.807 125.472 398.807C126.029 398.807 126.474 398.691 126.807 398.46C127.14 398.225 127.307 397.939 127.307 397.602C127.307 397.33 127.205 397.1 127 396.915C126.799 396.729 126.491 396.589 126.074 396.494L124.597 396.17C123.782 395.985 123.18 395.689 122.79 395.284C122.404 394.879 122.21 394.366 122.21 393.744C122.21 393.229 122.354 392.778 122.642 392.392C122.93 392.006 123.328 391.705 123.835 391.489C124.343 391.269 124.924 391.159 125.58 391.159C126.523 391.159 127.265 391.364 127.807 391.773C128.349 392.178 128.707 392.722 128.881 393.403Z"/><path fill="#94A3B8" d="M116.393 400.193C115.496 400.189 114.729 399.953 114.092 399.483C113.456 399.013 112.969 398.33 112.632 397.432C112.295 396.534 112.126 395.453 112.126 394.188C112.126 392.926 112.295 391.848 112.632 390.955C112.973 390.061 113.462 389.379 114.098 388.909C114.738 388.439 115.503 388.205 116.393 388.205C117.283 388.205 118.047 388.441 118.683 388.915C119.319 389.384 119.806 390.066 120.143 390.96C120.484 391.85 120.655 392.926 120.655 394.188C120.655 395.456 120.486 396.54 120.149 397.438C119.812 398.331 119.325 399.015 118.689 399.489C118.052 399.958 117.287 400.193 116.393 400.193ZM116.393 398.676C117.181 398.676 117.797 398.292 118.24 397.523C118.687 396.754 118.91 395.642 118.91 394.188C118.91 393.222 118.808 392.405 118.604 391.739C118.403 391.068 118.113 390.561 117.734 390.216C117.359 389.867 116.912 389.693 116.393 389.693C115.609 389.693 114.994 390.08 114.547 390.852C114.1 391.625 113.874 392.737 113.871 394.188C113.871 395.157 113.971 395.977 114.172 396.648C114.376 397.314 114.666 397.82 115.041 398.165C115.416 398.506 115.867 398.676 116.393 398.676ZM128.881 393.403L127.341 393.676C127.277 393.479 127.174 393.292 127.034 393.114C126.898 392.936 126.712 392.79 126.477 392.676C126.243 392.562 125.949 392.506 125.597 392.506C125.116 392.506 124.714 392.614 124.392 392.83C124.07 393.042 123.909 393.316 123.909 393.653C123.909 393.945 124.017 394.18 124.233 394.358C124.449 394.536 124.797 394.682 125.279 394.795L126.665 395.114C127.468 395.299 128.066 395.585 128.46 395.972C128.854 396.358 129.051 396.86 129.051 397.477C129.051 398 128.9 398.466 128.597 398.875C128.297 399.28 127.879 399.598 127.341 399.83C126.807 400.061 126.188 400.176 125.483 400.176C124.506 400.176 123.708 399.968 123.091 399.551C122.474 399.131 122.095 398.534 121.955 397.761L123.597 397.511C123.699 397.939 123.909 398.263 124.227 398.483C124.546 398.699 124.96 398.807 125.472 398.807C126.029 398.807 126.474 398.691 126.807 398.46C127.14 398.225 127.307 397.939 127.307 397.602C127.307 397.33 127.205 397.1 127 396.915C126.799 396.729 126.491 396.589 126.074 396.494L124.597 396.17C123.782 395.985 123.18 395.689 122.79 395.284C122.404 394.879 122.21 394.366 122.21 393.744C122.21 393.229 122.354 392.778 122.642 392.392C122.93 392.006 123.328 391.705 123.835 391.489C124.343 391.269 124.924 391.159 125.58 391.159C126.523 391.159 127.265 391.364 127.807 391.773C128.349 392.178 128.707 392.722 128.881 393.403Z"/><path fill="#94A3B8" d="M116.393 400.193C115.496 400.189 114.729 399.953 114.092 399.483C113.456 399.013 112.969 398.33 112.632 397.432C112.295 396.534 112.126 395.453 112.126 394.188C112.126 392.926 112.295 391.848 112.632 390.955C112.973 390.061 113.462 389.379 114.098 388.909C114.738 388.439 115.503 388.205 116.393 388.205C117.283 388.205 118.047 388.441 118.683 388.915C119.319 389.384 119.806 390.066 120.143 390.96C120.484 391.85 120.655 392.926 120.655 394.188C120.655 395.456 120.486 396.54 120.149 397.438C119.812 398.331 119.325 399.015 118.689 399.489C118.052 399.958 117.287 400.193 116.393 400.193ZM116.393 398.676C117.181 398.676 117.797 398.292 118.24 397.523C118.687 396.754 118.91 395.642 118.91 394.188C118.91 393.222 118.808 392.405 118.604 391.739C118.403 391.068 118.113 390.561 117.734 390.216C117.359 389.867 116.912 389.693 116.393 389.693C115.609 389.693 114.994 390.08 114.547 390.852C114.1 391.625 113.874 392.737 113.871 394.188C113.871 395.157 113.971 395.977 114.172 396.648C114.376 397.314 114.666 397.82 115.041 398.165C115.416 398.506 115.867 398.676 116.393 398.676ZM128.881 393.403L127.341 393.676C127.277 393.479 127.174 393.292 127.034 393.114C126.898 392.936 126.712 392.79 126.477 392.676C126.243 392.562 125.949 392.506 125.597 392.506C125.116 392.506 124.714 392.614 124.392 392.83C124.07 393.042 123.909 393.316 123.909 393.653C123.909 393.945 124.017 394.18 124.233 394.358C124.449 394.536 124.797 394.682 125.279 394.795L126.665 395.114C127.468 395.299 128.066 395.585 128.46 395.972C128.854 396.358 129.051 396.86 129.051 397.477C129.051 398 128.9 398.466 128.597 398.875C128.297 399.28 127.879 399.598 127.341 399.83C126.807 400.061 126.188 400.176 125.483 400.176C124.506 400.176 123.708 399.968 123.091 399.551C122.474 399.131 122.095 398.534 121.955 397.761L123.597 397.511C123.699 397.939 123.909 398.263 124.227 398.483C124.546 398.699 124.96 398.807 125.472 398.807C126.029 398.807 126.474 398.691 126.807 398.46C127.14 398.225 127.307 397.939 127.307 397.602C127.307 397.33 127.205 397.1 127 396.915C126.799 396.729 126.491 396.589 126.074 396.494L124.597 396.17C123.782 395.985 123.18 395.689 122.79 395.284C122.404 394.879 122.21 394.366 122.21 393.744C122.21 393.229 122.354 392.778 122.642 392.392C122.93 392.006 123.328 391.705 123.835 391.489C124.343 391.269 124.924 391.159 125.58 391.159C126.523 391.159 127.265 391.364 127.807 391.773C128.349 392.178 128.707 392.722 128.881 393.403Z"/><path fill="#94A3B8" d="M214.413 400.159C213.633 400.159 212.936 400.025 212.322 399.756C211.712 399.487 211.229 399.114 210.873 398.636C210.521 398.155 210.332 397.598 210.305 396.966H212.089C212.112 397.311 212.227 397.61 212.436 397.864C212.648 398.114 212.924 398.307 213.265 398.443C213.606 398.58 213.985 398.648 214.402 398.648C214.86 398.648 215.265 398.568 215.618 398.409C215.974 398.25 216.252 398.028 216.453 397.744C216.654 397.456 216.754 397.125 216.754 396.75C216.754 396.36 216.654 396.017 216.453 395.722C216.256 395.422 215.966 395.187 215.584 395.017C215.205 394.847 214.746 394.761 214.209 394.761H213.226V393.33H214.209C214.64 393.33 215.019 393.252 215.345 393.097C215.674 392.941 215.932 392.725 216.118 392.449C216.303 392.169 216.396 391.841 216.396 391.466C216.396 391.106 216.315 390.794 216.152 390.528C215.993 390.259 215.765 390.049 215.47 389.898C215.178 389.746 214.834 389.67 214.436 389.67C214.057 389.67 213.703 389.741 213.373 389.881C213.048 390.017 212.782 390.214 212.578 390.472C212.373 390.725 212.263 391.03 212.248 391.386H210.549C210.568 390.758 210.754 390.205 211.106 389.727C211.462 389.25 211.932 388.877 212.515 388.608C213.099 388.339 213.746 388.205 214.459 388.205C215.205 388.205 215.849 388.35 216.39 388.642C216.936 388.93 217.356 389.314 217.652 389.795C217.951 390.277 218.099 390.803 218.095 391.375C218.099 392.027 217.917 392.58 217.549 393.034C217.186 393.489 216.701 393.794 216.095 393.949V394.04C216.868 394.157 217.466 394.464 217.89 394.96C218.318 395.456 218.531 396.072 218.527 396.807C218.531 397.447 218.352 398.021 217.993 398.528C217.637 399.036 217.15 399.436 216.532 399.727C215.915 400.015 215.209 400.159 214.413 400.159ZM224.374 400.193C223.476 400.189 222.709 399.953 222.072 399.483C221.436 399.013 220.949 398.33 220.612 397.432C220.275 396.534 220.107 395.453 220.107 394.188C220.107 392.926 220.275 391.848 220.612 390.955C220.953 390.061 221.442 389.379 222.078 388.909C222.718 388.439 223.483 388.205 224.374 388.205C225.264 388.205 226.027 388.441 226.663 388.915C227.3 389.384 227.786 390.066 228.124 390.96C228.464 391.85 228.635 392.926 228.635 394.188C228.635 395.456 228.466 396.54 228.129 397.438C227.792 398.331 227.305 399.015 226.669 399.489C226.033 399.958 225.268 400.193 224.374 400.193ZM224.374 398.676C225.161 398.676 225.777 398.292 226.22 397.523C226.667 396.754 226.891 395.642 226.891 394.188C226.891 393.222 226.788 392.405 226.584 391.739C226.383 391.068 226.093 390.561 225.714 390.216C225.339 389.867 224.893 389.693 224.374 389.693C223.589 389.693 222.974 390.08 222.527 390.852C222.08 391.625 221.855 392.737 221.851 394.188C221.851 395.157 221.951 395.977 222.152 396.648C222.357 397.314 222.646 397.82 223.021 398.165C223.396 398.506 223.847 398.676 224.374 398.676ZM236.861 393.403L235.321 393.676C235.257 393.479 235.155 393.292 235.014 393.114C234.878 392.936 234.693 392.79 234.458 392.676C234.223 392.562 233.929 392.506 233.577 392.506C233.096 392.506 232.694 392.614 232.372 392.83C232.05 393.042 231.889 393.316 231.889 393.653C231.889 393.945 231.997 394.18 232.213 394.358C232.429 394.536 232.778 394.682 233.259 394.795L234.645 395.114C235.448 395.299 236.047 395.585 236.441 395.972C236.835 396.358 237.032 396.86 237.032 397.477C237.032 398 236.88 398.466 236.577 398.875C236.278 399.28 235.859 399.598 235.321 399.83C234.787 400.061 234.168 400.176 233.463 400.176C232.486 400.176 231.689 399.968 231.071 399.551C230.454 399.131 230.075 398.534 229.935 397.761L231.577 397.511C231.679 397.939 231.889 398.263 232.208 398.483C232.526 398.699 232.941 398.807 233.452 398.807C234.009 398.807 234.454 398.691 234.787 398.46C235.121 398.225 235.287 397.939 235.287 397.602C235.287 397.33 235.185 397.1 234.98 396.915C234.78 396.729 234.471 396.589 234.054 396.494L232.577 396.17C231.763 395.985 231.16 395.689 230.77 395.284C230.384 394.879 230.191 394.366 230.191 393.744C230.191 393.229 230.335 392.778 230.622 392.392C230.91 392.006 231.308 391.705 231.816 391.489C232.323 391.269 232.905 391.159 233.56 391.159C234.503 391.159 235.246 391.364 235.787 391.773C236.329 392.178 236.687 392.722 236.861 393.403Z"/><path fill="#94A3B8" d="M214.413 400.159C213.633 400.159 212.936 400.025 212.322 399.756C211.712 399.487 211.229 399.114 210.873 398.636C210.521 398.155 210.332 397.598 210.305 396.966H212.089C212.112 397.311 212.227 397.61 212.436 397.864C212.648 398.114 212.924 398.307 213.265 398.443C213.606 398.58 213.985 398.648 214.402 398.648C214.86 398.648 215.265 398.568 215.618 398.409C215.974 398.25 216.252 398.028 216.453 397.744C216.654 397.456 216.754 397.125 216.754 396.75C216.754 396.36 216.654 396.017 216.453 395.722C216.256 395.422 215.966 395.187 215.584 395.017C215.205 394.847 214.746 394.761 214.209 394.761H213.226V393.33H214.209C214.64 393.33 215.019 393.252 215.345 393.097C215.674 392.941 215.932 392.725 216.118 392.449C216.303 392.169 216.396 391.841 216.396 391.466C216.396 391.106 216.315 390.794 216.152 390.528C215.993 390.259 215.765 390.049 215.47 389.898C215.178 389.746 214.834 389.67 214.436 389.67C214.057 389.67 213.703 389.741 213.373 389.881C213.048 390.017 212.782 390.214 212.578 390.472C212.373 390.725 212.263 391.03 212.248 391.386H210.549C210.568 390.758 210.754 390.205 211.106 389.727C211.462 389.25 211.932 388.877 212.515 388.608C213.099 388.339 213.746 388.205 214.459 388.205C215.205 388.205 215.849 388.35 216.39 388.642C216.936 388.93 217.356 389.314 217.652 389.795C217.951 390.277 218.099 390.803 218.095 391.375C218.099 392.027 217.917 392.58 217.549 393.034C217.186 393.489 216.701 393.794 216.095 393.949V394.04C216.868 394.157 217.466 394.464 217.89 394.96C218.318 395.456 218.531 396.072 218.527 396.807C218.531 397.447 218.352 398.021 217.993 398.528C217.637 399.036 217.15 399.436 216.532 399.727C215.915 400.015 215.209 400.159 214.413 400.159ZM224.374 400.193C223.476 400.189 222.709 399.953 222.072 399.483C221.436 399.013 220.949 398.33 220.612 397.432C220.275 396.534 220.107 395.453 220.107 394.188C220.107 392.926 220.275 391.848 220.612 390.955C220.953 390.061 221.442 389.379 222.078 388.909C222.718 388.439 223.483 388.205 224.374 388.205C225.264 388.205 226.027 388.441 226.663 388.915C227.3 389.384 227.786 390.066 228.124 390.96C228.464 391.85 228.635 392.926 228.635 394.188C228.635 395.456 228.466 396.54 228.129 397.438C227.792 398.331 227.305 399.015 226.669 399.489C226.033 399.958 225.268 400.193 224.374 400.193ZM224.374 398.676C225.161 398.676 225.777 398.292 226.22 397.523C226.667 396.754 226.891 395.642 226.891 394.188C226.891 393.222 226.788 392.405 226.584 391.739C226.383 391.068 226.093 390.561 225.714 390.216C225.339 389.867 224.893 389.693 224.374 389.693C223.589 389.693 222.974 390.08 222.527 390.852C222.08 391.625 221.855 392.737 221.851 394.188C221.851 395.157 221.951 395.977 222.152 396.648C222.357 397.314 222.646 397.82 223.021 398.165C223.396 398.506 223.847 398.676 224.374 398.676ZM236.861 393.403L235.321 393.676C235.257 393.479 235.155 393.292 235.014 393.114C234.878 392.936 234.693 392.79 234.458 392.676C234.223 392.562 233.929 392.506 233.577 392.506C233.096 392.506 232.694 392.614 232.372 392.83C232.05 393.042 231.889 393.316 231.889 393.653C231.889 393.945 231.997 394.18 232.213 394.358C232.429 394.536 232.778 394.682 233.259 394.795L234.645 395.114C235.448 395.299 236.047 395.585 236.441 395.972C236.835 396.358 237.032 396.86 237.032 397.477C237.032 398 236.88 398.466 236.577 398.875C236.278 399.28 235.859 399.598 235.321 399.83C234.787 400.061 234.168 400.176 233.463 400.176C232.486 400.176 231.689 399.968 231.071 399.551C230.454 399.131 230.075 398.534 229.935 397.761L231.577 397.511C231.679 397.939 231.889 398.263 232.208 398.483C232.526 398.699 232.941 398.807 233.452 398.807C234.009 398.807 234.454 398.691 234.787 398.46C235.121 398.225 235.287 397.939 235.287 397.602C235.287 397.33 235.185 397.1 234.98 396.915C234.78 396.729 234.471 396.589 234.054 396.494L232.577 396.17C231.763 395.985 231.16 395.689 230.77 395.284C230.384 394.879 230.191 394.366 230.191 393.744C230.191 393.229 230.335 392.778 230.622 392.392C230.91 392.006 231.308 391.705 231.816 391.489C232.323 391.269 232.905 391.159 233.56 391.159C234.503 391.159 235.246 391.364 235.787 391.773C236.329 392.178 236.687 392.722 236.861 393.403Z"/><path fill="#94A3B8" d="M214.413 400.159C213.633 400.159 212.936 400.025 212.322 399.756C211.712 399.487 211.229 399.114 210.873 398.636C210.521 398.155 210.332 397.598 210.305 396.966H212.089C212.112 397.311 212.227 397.61 212.436 397.864C212.648 398.114 212.924 398.307 213.265 398.443C213.606 398.58 213.985 398.648 214.402 398.648C214.86 398.648 215.265 398.568 215.618 398.409C215.974 398.25 216.252 398.028 216.453 397.744C216.654 397.456 216.754 397.125 216.754 396.75C216.754 396.36 216.654 396.017 216.453 395.722C216.256 395.422 215.966 395.187 215.584 395.017C215.205 394.847 214.746 394.761 214.209 394.761H213.226V393.33H214.209C214.64 393.33 215.019 393.252 215.345 393.097C215.674 392.941 215.932 392.725 216.118 392.449C216.303 392.169 216.396 391.841 216.396 391.466C216.396 391.106 216.315 390.794 216.152 390.528C215.993 390.259 215.765 390.049 215.47 389.898C215.178 389.746 214.834 389.67 214.436 389.67C214.057 389.67 213.703 389.741 213.373 389.881C213.048 390.017 212.782 390.214 212.578 390.472C212.373 390.725 212.263 391.03 212.248 391.386H210.549C210.568 390.758 210.754 390.205 211.106 389.727C211.462 389.25 211.932 388.877 212.515 388.608C213.099 388.339 213.746 388.205 214.459 388.205C215.205 388.205 215.849 388.35 216.39 388.642C216.936 388.93 217.356 389.314 217.652 389.795C217.951 390.277 218.099 390.803 218.095 391.375C218.099 392.027 217.917 392.58 217.549 393.034C217.186 393.489 216.701 393.794 216.095 393.949V394.04C216.868 394.157 217.466 394.464 217.89 394.96C218.318 395.456 218.531 396.072 218.527 396.807C218.531 397.447 218.352 398.021 217.993 398.528C217.637 399.036 217.15 399.436 216.532 399.727C215.915 400.015 215.209 400.159 214.413 400.159ZM224.374 400.193C223.476 400.189 222.709 399.953 222.072 399.483C221.436 399.013 220.949 398.33 220.612 397.432C220.275 396.534 220.107 395.453 220.107 394.188C220.107 392.926 220.275 391.848 220.612 390.955C220.953 390.061 221.442 389.379 222.078 388.909C222.718 388.439 223.483 388.205 224.374 388.205C225.264 388.205 226.027 388.441 226.663 388.915C227.3 389.384 227.786 390.066 228.124 390.96C228.464 391.85 228.635 392.926 228.635 394.188C228.635 395.456 228.466 396.54 228.129 397.438C227.792 398.331 227.305 399.015 226.669 399.489C226.033 399.958 225.268 400.193 224.374 400.193ZM224.374 398.676C225.161 398.676 225.777 398.292 226.22 397.523C226.667 396.754 226.891 395.642 226.891 394.188C226.891 393.222 226.788 392.405 226.584 391.739C226.383 391.068 226.093 390.561 225.714 390.216C225.339 389.867 224.893 389.693 224.374 389.693C223.589 389.693 222.974 390.08 222.527 390.852C222.08 391.625 221.855 392.737 221.851 394.188C221.851 395.157 221.951 395.977 222.152 396.648C222.357 397.314 222.646 397.82 223.021 398.165C223.396 398.506 223.847 398.676 224.374 398.676ZM236.861 393.403L235.321 393.676C235.257 393.479 235.155 393.292 235.014 393.114C234.878 392.936 234.693 392.79 234.458 392.676C234.223 392.562 233.929 392.506 233.577 392.506C233.096 392.506 232.694 392.614 232.372 392.83C232.05 393.042 231.889 393.316 231.889 393.653C231.889 393.945 231.997 394.18 232.213 394.358C232.429 394.536 232.778 394.682 233.259 394.795L234.645 395.114C235.448 395.299 236.047 395.585 236.441 395.972C236.835 396.358 237.032 396.86 237.032 397.477C237.032 398 236.88 398.466 236.577 398.875C236.278 399.28 235.859 399.598 235.321 399.83C234.787 400.061 234.168 400.176 233.463 400.176C232.486 400.176 231.689 399.968 231.071 399.551C230.454 399.131 230.075 398.534 229.935 397.761L231.577 397.511C231.679 397.939 231.889 398.263 232.208 398.483C232.526 398.699 232.941 398.807 233.452 398.807C234.009 398.807 234.454 398.691 234.787 398.46C235.121 398.225 235.287 397.939 235.287 397.602C235.287 397.33 235.185 397.1 234.98 396.915C234.78 396.729 234.471 396.589 234.054 396.494L232.577 396.17C231.763 395.985 231.16 395.689 230.77 395.284C230.384 394.879 230.191 394.366 230.191 393.744C230.191 393.229 230.335 392.778 230.622 392.392C230.91 392.006 231.308 391.705 231.816 391.489C232.323 391.269 232.905 391.159 233.56 391.159C234.503 391.159 235.246 391.364 235.787 391.773C236.329 392.178 236.687 392.722 236.861 393.403Z"/><path fill="#94A3B8" d="M316.859 388.364V400H315.097V390.125H315.029L312.245 391.943V390.261L315.148 388.364H316.859ZM319.677 400V391.273H321.308V392.693H321.416C321.597 392.212 321.895 391.837 322.308 391.568C322.721 391.295 323.215 391.159 323.791 391.159C324.374 391.159 324.863 391.295 325.257 391.568C325.654 391.841 325.948 392.216 326.137 392.693H326.228C326.436 392.227 326.768 391.856 327.222 391.58C327.677 391.299 328.219 391.159 328.847 391.159C329.639 391.159 330.285 391.407 330.785 391.903C331.289 392.4 331.541 393.148 331.541 394.148V400H329.842V394.307C329.842 393.716 329.681 393.288 329.359 393.023C329.037 392.758 328.652 392.625 328.205 392.625C327.652 392.625 327.222 392.795 326.916 393.136C326.609 393.473 326.455 393.907 326.455 394.438V400H324.762V394.199C324.762 393.725 324.614 393.345 324.319 393.057C324.024 392.769 323.639 392.625 323.166 392.625C322.844 392.625 322.546 392.71 322.274 392.881C322.005 393.047 321.787 393.28 321.62 393.58C321.457 393.879 321.376 394.225 321.376 394.619V400H319.677Z"/><path fill="#94A3B8" d="M316.859 388.364V400H315.097V390.125H315.029L312.245 391.943V390.261L315.148 388.364H316.859ZM319.677 400V391.273H321.308V392.693H321.416C321.597 392.212 321.895 391.837 322.308 391.568C322.721 391.295 323.215 391.159 323.791 391.159C324.374 391.159 324.863 391.295 325.257 391.568C325.654 391.841 325.948 392.216 326.137 392.693H326.228C326.436 392.227 326.768 391.856 327.222 391.58C327.677 391.299 328.219 391.159 328.847 391.159C329.639 391.159 330.285 391.407 330.785 391.903C331.289 392.4 331.541 393.148 331.541 394.148V400H329.842V394.307C329.842 393.716 329.681 393.288 329.359 393.023C329.037 392.758 328.652 392.625 328.205 392.625C327.652 392.625 327.222 392.795 326.916 393.136C326.609 393.473 326.455 393.907 326.455 394.438V400H324.762V394.199C324.762 393.725 324.614 393.345 324.319 393.057C324.024 392.769 323.639 392.625 323.166 392.625C322.844 392.625 322.546 392.71 322.274 392.881C322.005 393.047 321.787 393.28 321.62 393.58C321.457 393.879 321.376 394.225 321.376 394.619V400H319.677Z"/><path fill="#94A3B8" d="M316.859 388.364V400H315.097V390.125H315.029L312.245 391.943V390.261L315.148 388.364H316.859ZM319.677 400V391.273H321.308V392.693H321.416C321.597 392.212 321.895 391.837 322.308 391.568C322.721 391.295 323.215 391.159 323.791 391.159C324.374 391.159 324.863 391.295 325.257 391.568C325.654 391.841 325.948 392.216 326.137 392.693H326.228C326.436 392.227 326.768 391.856 327.222 391.58C327.677 391.299 328.219 391.159 328.847 391.159C329.639 391.159 330.285 391.407 330.785 391.903C331.289 392.4 331.541 393.148 331.541 394.148V400H329.842V394.307C329.842 393.716 329.681 393.288 329.359 393.023C329.037 392.758 328.652 392.625 328.205 392.625C327.652 392.625 327.222 392.795 326.916 393.136C326.609 393.473 326.455 393.907 326.455 394.438V400H324.762V394.199C324.762 393.725 324.614 393.345 324.319 393.057C324.024 392.769 323.639 392.625 323.166 392.625C322.844 392.625 322.546 392.71 322.274 392.881C322.005 393.047 321.787 393.28 321.62 393.58C321.457 393.879 321.376 394.225 321.376 394.619V400H319.677Z"/><path fill="#94A3B8" d="M419.836 388.364V400H418.075V390.125H418.006L415.222 391.943V390.261L418.126 388.364H419.836ZM422.654 400V391.273H424.285V392.693H424.393C424.575 392.212 424.872 391.837 425.285 391.568C425.698 391.295 426.192 391.159 426.768 391.159C427.351 391.159 427.84 391.295 428.234 391.568C428.632 391.841 428.925 392.216 429.115 392.693H429.206C429.414 392.227 429.745 391.856 430.2 391.58C430.654 391.299 431.196 391.159 431.825 391.159C432.617 391.159 433.262 391.407 433.762 391.903C434.266 392.4 434.518 393.148 434.518 394.148V400H432.819V394.307C432.819 393.716 432.658 393.288 432.336 393.023C432.014 392.758 431.63 392.625 431.183 392.625C430.63 392.625 430.2 392.795 429.893 393.136C429.586 393.473 429.433 393.907 429.433 394.438V400H427.74V394.199C427.74 393.725 427.592 393.345 427.296 393.057C427.001 392.769 426.617 392.625 426.143 392.625C425.821 392.625 425.524 392.71 425.251 392.881C424.982 393.047 424.764 393.28 424.598 393.58C424.435 393.879 424.353 394.225 424.353 394.619V400H422.654ZM444.354 400.159C443.574 400.159 442.877 400.025 442.263 399.756C441.653 399.487 441.17 399.114 440.814 398.636C440.462 398.155 440.272 397.598 440.246 396.966H442.03C442.053 397.311 442.168 397.61 442.377 397.864C442.589 398.114 442.865 398.307 443.206 398.443C443.547 398.58 443.926 398.648 444.342 398.648C444.801 398.648 445.206 398.568 445.558 398.409C445.914 398.25 446.193 398.028 446.394 397.744C446.594 397.456 446.695 397.125 446.695 396.75C446.695 396.36 446.594 396.017 446.394 395.722C446.197 395.422 445.907 395.187 445.524 395.017C445.145 394.847 444.687 394.761 444.149 394.761H443.166V393.33H444.149C444.581 393.33 444.96 393.252 445.286 393.097C445.615 392.941 445.873 392.725 446.058 392.449C446.244 392.169 446.337 391.841 446.337 391.466C446.337 391.106 446.255 390.794 446.092 390.528C445.933 390.259 445.706 390.049 445.411 389.898C445.119 389.746 444.774 389.67 444.377 389.67C443.998 389.67 443.644 389.741 443.314 389.881C442.988 390.017 442.723 390.214 442.519 390.472C442.314 390.725 442.204 391.03 442.189 391.386H440.49C440.509 390.758 440.695 390.205 441.047 389.727C441.403 389.25 441.873 388.877 442.456 388.608C443.039 388.339 443.687 388.205 444.399 388.205C445.145 388.205 445.789 388.35 446.331 388.642C446.877 388.93 447.297 389.314 447.592 389.795C447.892 390.277 448.039 390.803 448.036 391.375C448.039 392.027 447.858 392.58 447.49 393.034C447.127 393.489 446.642 393.794 446.036 393.949V394.04C446.808 394.157 447.407 394.464 447.831 394.96C448.259 395.456 448.471 396.072 448.467 396.807C448.471 397.447 448.293 398.021 447.933 398.528C447.577 399.036 447.091 399.436 446.473 399.727C445.856 400.015 445.149 400.159 444.354 400.159ZM454.314 400.193C453.417 400.189 452.65 399.953 452.013 399.483C451.377 399.013 450.89 398.33 450.553 397.432C450.216 396.534 450.047 395.453 450.047 394.188C450.047 392.926 450.216 391.848 450.553 390.955C450.894 390.061 451.383 389.379 452.019 388.909C452.659 388.439 453.424 388.205 454.314 388.205C455.204 388.205 455.968 388.441 456.604 388.915C457.24 389.384 457.727 390.066 458.064 390.96C458.405 391.85 458.576 392.926 458.576 394.188C458.576 395.456 458.407 396.54 458.07 397.438C457.733 398.331 457.246 399.015 456.61 399.489C455.973 399.958 455.208 400.193 454.314 400.193ZM454.314 398.676C455.102 398.676 455.718 398.292 456.161 397.523C456.608 396.754 456.831 395.642 456.831 394.188C456.831 393.222 456.729 392.405 456.525 391.739C456.324 391.068 456.034 390.561 455.655 390.216C455.28 389.867 454.833 389.693 454.314 389.693C453.53 389.693 452.915 390.08 452.468 390.852C452.021 391.625 451.795 392.737 451.792 394.188C451.792 395.157 451.892 395.977 452.093 396.648C452.297 397.314 452.587 397.82 452.962 398.165C453.337 398.506 453.788 398.676 454.314 398.676ZM466.802 393.403L465.262 393.676C465.198 393.479 465.095 393.292 464.955 393.114C464.819 392.936 464.633 392.79 464.398 392.676C464.164 392.562 463.87 392.506 463.518 392.506C463.037 392.506 462.635 392.614 462.313 392.83C461.991 393.042 461.83 393.316 461.83 393.653C461.83 393.945 461.938 394.18 462.154 394.358C462.37 394.536 462.718 394.682 463.2 394.795L464.586 395.114C465.389 395.299 465.987 395.585 466.381 395.972C466.775 396.358 466.972 396.86 466.972 397.477C466.972 398 466.821 398.466 466.518 398.875C466.218 399.28 465.8 399.598 465.262 399.83C464.728 400.061 464.109 400.176 463.404 400.176C462.427 400.176 461.629 399.968 461.012 399.551C460.395 399.131 460.016 398.534 459.876 397.761L461.518 397.511C461.62 397.939 461.83 398.263 462.148 398.483C462.467 398.699 462.881 398.807 463.393 398.807C463.95 398.807 464.395 398.691 464.728 398.46C465.061 398.225 465.228 397.939 465.228 397.602C465.228 397.33 465.126 397.1 464.921 396.915C464.72 396.729 464.412 396.589 463.995 396.494L462.518 396.17C461.703 395.985 461.101 395.689 460.711 395.284C460.325 394.879 460.131 394.366 460.131 393.744C460.131 393.229 460.275 392.778 460.563 392.392C460.851 392.006 461.249 391.705 461.756 391.489C462.264 391.269 462.845 391.159 463.501 391.159C464.444 391.159 465.186 391.364 465.728 391.773C466.27 392.178 466.628 392.722 466.802 393.403Z"/><path fill="#94A3B8" d="M419.836 388.364V400H418.075V390.125H418.006L415.222 391.943V390.261L418.126 388.364H419.836ZM422.654 400V391.273H424.285V392.693H424.393C424.575 392.212 424.872 391.837 425.285 391.568C425.698 391.295 426.192 391.159 426.768 391.159C427.351 391.159 427.84 391.295 428.234 391.568C428.632 391.841 428.925 392.216 429.115 392.693H429.206C429.414 392.227 429.745 391.856 430.2 391.58C430.654 391.299 431.196 391.159 431.825 391.159C432.617 391.159 433.262 391.407 433.762 391.903C434.266 392.4 434.518 393.148 434.518 394.148V400H432.819V394.307C432.819 393.716 432.658 393.288 432.336 393.023C432.014 392.758 431.63 392.625 431.183 392.625C430.63 392.625 430.2 392.795 429.893 393.136C429.586 393.473 429.433 393.907 429.433 394.438V400H427.74V394.199C427.74 393.725 427.592 393.345 427.296 393.057C427.001 392.769 426.617 392.625 426.143 392.625C425.821 392.625 425.524 392.71 425.251 392.881C424.982 393.047 424.764 393.28 424.598 393.58C424.435 393.879 424.353 394.225 424.353 394.619V400H422.654ZM444.354 400.159C443.574 400.159 442.877 400.025 442.263 399.756C441.653 399.487 441.17 399.114 440.814 398.636C440.462 398.155 440.272 397.598 440.246 396.966H442.03C442.053 397.311 442.168 397.61 442.377 397.864C442.589 398.114 442.865 398.307 443.206 398.443C443.547 398.58 443.926 398.648 444.342 398.648C444.801 398.648 445.206 398.568 445.558 398.409C445.914 398.25 446.193 398.028 446.394 397.744C446.594 397.456 446.695 397.125 446.695 396.75C446.695 396.36 446.594 396.017 446.394 395.722C446.197 395.422 445.907 395.187 445.524 395.017C445.145 394.847 444.687 394.761 444.149 394.761H443.166V393.33H444.149C444.581 393.33 444.96 393.252 445.286 393.097C445.615 392.941 445.873 392.725 446.058 392.449C446.244 392.169 446.337 391.841 446.337 391.466C446.337 391.106 446.255 390.794 446.092 390.528C445.933 390.259 445.706 390.049 445.411 389.898C445.119 389.746 444.774 389.67 444.377 389.67C443.998 389.67 443.644 389.741 443.314 389.881C442.988 390.017 442.723 390.214 442.519 390.472C442.314 390.725 442.204 391.03 442.189 391.386H440.49C440.509 390.758 440.695 390.205 441.047 389.727C441.403 389.25 441.873 388.877 442.456 388.608C443.039 388.339 443.687 388.205 444.399 388.205C445.145 388.205 445.789 388.35 446.331 388.642C446.877 388.93 447.297 389.314 447.592 389.795C447.892 390.277 448.039 390.803 448.036 391.375C448.039 392.027 447.858 392.58 447.49 393.034C447.127 393.489 446.642 393.794 446.036 393.949V394.04C446.808 394.157 447.407 394.464 447.831 394.96C448.259 395.456 448.471 396.072 448.467 396.807C448.471 397.447 448.293 398.021 447.933 398.528C447.577 399.036 447.091 399.436 446.473 399.727C445.856 400.015 445.149 400.159 444.354 400.159ZM454.314 400.193C453.417 400.189 452.65 399.953 452.013 399.483C451.377 399.013 450.89 398.33 450.553 397.432C450.216 396.534 450.047 395.453 450.047 394.188C450.047 392.926 450.216 391.848 450.553 390.955C450.894 390.061 451.383 389.379 452.019 388.909C452.659 388.439 453.424 388.205 454.314 388.205C455.204 388.205 455.968 388.441 456.604 388.915C457.24 389.384 457.727 390.066 458.064 390.96C458.405 391.85 458.576 392.926 458.576 394.188C458.576 395.456 458.407 396.54 458.07 397.438C457.733 398.331 457.246 399.015 456.61 399.489C455.973 399.958 455.208 400.193 454.314 400.193ZM454.314 398.676C455.102 398.676 455.718 398.292 456.161 397.523C456.608 396.754 456.831 395.642 456.831 394.188C456.831 393.222 456.729 392.405 456.525 391.739C456.324 391.068 456.034 390.561 455.655 390.216C455.28 389.867 454.833 389.693 454.314 389.693C453.53 389.693 452.915 390.08 452.468 390.852C452.021 391.625 451.795 392.737 451.792 394.188C451.792 395.157 451.892 395.977 452.093 396.648C452.297 397.314 452.587 397.82 452.962 398.165C453.337 398.506 453.788 398.676 454.314 398.676ZM466.802 393.403L465.262 393.676C465.198 393.479 465.095 393.292 464.955 393.114C464.819 392.936 464.633 392.79 464.398 392.676C464.164 392.562 463.87 392.506 463.518 392.506C463.037 392.506 462.635 392.614 462.313 392.83C461.991 393.042 461.83 393.316 461.83 393.653C461.83 393.945 461.938 394.18 462.154 394.358C462.37 394.536 462.718 394.682 463.2 394.795L464.586 395.114C465.389 395.299 465.987 395.585 466.381 395.972C466.775 396.358 466.972 396.86 466.972 397.477C466.972 398 466.821 398.466 466.518 398.875C466.218 399.28 465.8 399.598 465.262 399.83C464.728 400.061 464.109 400.176 463.404 400.176C462.427 400.176 461.629 399.968 461.012 399.551C460.395 399.131 460.016 398.534 459.876 397.761L461.518 397.511C461.62 397.939 461.83 398.263 462.148 398.483C462.467 398.699 462.881 398.807 463.393 398.807C463.95 398.807 464.395 398.691 464.728 398.46C465.061 398.225 465.228 397.939 465.228 397.602C465.228 397.33 465.126 397.1 464.921 396.915C464.72 396.729 464.412 396.589 463.995 396.494L462.518 396.17C461.703 395.985 461.101 395.689 460.711 395.284C460.325 394.879 460.131 394.366 460.131 393.744C460.131 393.229 460.275 392.778 460.563 392.392C460.851 392.006 461.249 391.705 461.756 391.489C462.264 391.269 462.845 391.159 463.501 391.159C464.444 391.159 465.186 391.364 465.728 391.773C466.27 392.178 466.628 392.722 466.802 393.403Z"/><path fill="#94A3B8" d="M419.836 388.364V400H418.075V390.125H418.006L415.222 391.943V390.261L418.126 388.364H419.836ZM422.654 400V391.273H424.285V392.693H424.393C424.575 392.212 424.872 391.837 425.285 391.568C425.698 391.295 426.192 391.159 426.768 391.159C427.351 391.159 427.84 391.295 428.234 391.568C428.632 391.841 428.925 392.216 429.115 392.693H429.206C429.414 392.227 429.745 391.856 430.2 391.58C430.654 391.299 431.196 391.159 431.825 391.159C432.617 391.159 433.262 391.407 433.762 391.903C434.266 392.4 434.518 393.148 434.518 394.148V400H432.819V394.307C432.819 393.716 432.658 393.288 432.336 393.023C432.014 392.758 431.63 392.625 431.183 392.625C430.63 392.625 430.2 392.795 429.893 393.136C429.586 393.473 429.433 393.907 429.433 394.438V400H427.74V394.199C427.74 393.725 427.592 393.345 427.296 393.057C427.001 392.769 426.617 392.625 426.143 392.625C425.821 392.625 425.524 392.71 425.251 392.881C424.982 393.047 424.764 393.28 424.598 393.58C424.435 393.879 424.353 394.225 424.353 394.619V400H422.654ZM444.354 400.159C443.574 400.159 442.877 400.025 442.263 399.756C441.653 399.487 441.17 399.114 440.814 398.636C440.462 398.155 440.272 397.598 440.246 396.966H442.03C442.053 397.311 442.168 397.61 442.377 397.864C442.589 398.114 442.865 398.307 443.206 398.443C443.547 398.58 443.926 398.648 444.342 398.648C444.801 398.648 445.206 398.568 445.558 398.409C445.914 398.25 446.193 398.028 446.394 397.744C446.594 397.456 446.695 397.125 446.695 396.75C446.695 396.36 446.594 396.017 446.394 395.722C446.197 395.422 445.907 395.187 445.524 395.017C445.145 394.847 444.687 394.761 444.149 394.761H443.166V393.33H444.149C444.581 393.33 444.96 393.252 445.286 393.097C445.615 392.941 445.873 392.725 446.058 392.449C446.244 392.169 446.337 391.841 446.337 391.466C446.337 391.106 446.255 390.794 446.092 390.528C445.933 390.259 445.706 390.049 445.411 389.898C445.119 389.746 444.774 389.67 444.377 389.67C443.998 389.67 443.644 389.741 443.314 389.881C442.988 390.017 442.723 390.214 442.519 390.472C442.314 390.725 442.204 391.03 442.189 391.386H440.49C440.509 390.758 440.695 390.205 441.047 389.727C441.403 389.25 441.873 388.877 442.456 388.608C443.039 388.339 443.687 388.205 444.399 388.205C445.145 388.205 445.789 388.35 446.331 388.642C446.877 388.93 447.297 389.314 447.592 389.795C447.892 390.277 448.039 390.803 448.036 391.375C448.039 392.027 447.858 392.58 447.49 393.034C447.127 393.489 446.642 393.794 446.036 393.949V394.04C446.808 394.157 447.407 394.464 447.831 394.96C448.259 395.456 448.471 396.072 448.467 396.807C448.471 397.447 448.293 398.021 447.933 398.528C447.577 399.036 447.091 399.436 446.473 399.727C445.856 400.015 445.149 400.159 444.354 400.159ZM454.314 400.193C453.417 400.189 452.65 399.953 452.013 399.483C451.377 399.013 450.89 398.33 450.553 397.432C450.216 396.534 450.047 395.453 450.047 394.188C450.047 392.926 450.216 391.848 450.553 390.955C450.894 390.061 451.383 389.379 452.019 388.909C452.659 388.439 453.424 388.205 454.314 388.205C455.204 388.205 455.968 388.441 456.604 388.915C457.24 389.384 457.727 390.066 458.064 390.96C458.405 391.85 458.576 392.926 458.576 394.188C458.576 395.456 458.407 396.54 458.07 397.438C457.733 398.331 457.246 399.015 456.61 399.489C455.973 399.958 455.208 400.193 454.314 400.193ZM454.314 398.676C455.102 398.676 455.718 398.292 456.161 397.523C456.608 396.754 456.831 395.642 456.831 394.188C456.831 393.222 456.729 392.405 456.525 391.739C456.324 391.068 456.034 390.561 455.655 390.216C455.28 389.867 454.833 389.693 454.314 389.693C453.53 389.693 452.915 390.08 452.468 390.852C452.021 391.625 451.795 392.737 451.792 394.188C451.792 395.157 451.892 395.977 452.093 396.648C452.297 397.314 452.587 397.82 452.962 398.165C453.337 398.506 453.788 398.676 454.314 398.676ZM466.802 393.403L465.262 393.676C465.198 393.479 465.095 393.292 464.955 393.114C464.819 392.936 464.633 392.79 464.398 392.676C464.164 392.562 463.87 392.506 463.518 392.506C463.037 392.506 462.635 392.614 462.313 392.83C461.991 393.042 461.83 393.316 461.83 393.653C461.83 393.945 461.938 394.18 462.154 394.358C462.37 394.536 462.718 394.682 463.2 394.795L464.586 395.114C465.389 395.299 465.987 395.585 466.381 395.972C466.775 396.358 466.972 396.86 466.972 397.477C466.972 398 466.821 398.466 466.518 398.875C466.218 399.28 465.8 399.598 465.262 399.83C464.728 400.061 464.109 400.176 463.404 400.176C462.427 400.176 461.629 399.968 461.012 399.551C460.395 399.131 460.016 398.534 459.876 397.761L461.518 397.511C461.62 397.939 461.83 398.263 462.148 398.483C462.467 398.699 462.881 398.807 463.393 398.807C463.95 398.807 464.395 398.691 464.728 398.46C465.061 398.225 465.228 397.939 465.228 397.602C465.228 397.33 465.126 397.1 464.921 396.915C464.72 396.729 464.412 396.589 463.995 396.494L462.518 396.17C461.703 395.985 461.101 395.689 460.711 395.284C460.325 394.879 460.131 394.366 460.131 393.744C460.131 393.229 460.275 392.778 460.563 392.392C460.851 392.006 461.249 391.705 461.756 391.489C462.264 391.269 462.845 391.159 463.501 391.159C464.444 391.159 465.186 391.364 465.728 391.773C466.27 392.178 466.628 392.722 466.802 393.403Z"/><path fill="#94A3B8" d="M184.646 304.646C184.451 304.842 184.451 305.158 184.646 305.354L187.828 308.536C188.024 308.731 188.34 308.731 188.536 308.536C188.731 308.34 188.731 308.024 188.536 307.828L185.707 305L188.536 302.172C188.731 301.976 188.731 301.66 188.536 301.464C188.34 301.269 188.024 301.269 187.828 301.464L184.646 304.646ZM440.354 305.354C440.549 305.158 440.549 304.842 440.354 304.646L437.172 301.464C436.976 301.269 436.66 301.269 436.464 301.464C436.269 301.66 436.269 301.976 436.464 302.172L439.293 305L436.464 307.828C436.269 308.024 436.269 308.34 436.464 308.536C436.66 308.731 436.976 308.731 437.172 308.536L440.354 305.354ZM185 305.5H440V304.5H185V305.5Z"/><path fill="#94A3B8" d="M291.304 292.273V301H289.987V292.273H291.304ZM295.306 301.128C294.777 301.128 294.306 300.993 293.891 300.723C293.479 300.45 293.155 300.062 292.919 299.56C292.687 299.054 292.57 298.447 292.57 297.74C292.57 297.033 292.688 296.428 292.924 295.925C293.162 295.422 293.489 295.037 293.904 294.77C294.319 294.503 294.789 294.369 295.314 294.369C295.721 294.369 296.047 294.438 296.294 294.574C296.544 294.707 296.738 294.864 296.874 295.043C297.013 295.222 297.121 295.379 297.198 295.516H297.275V292.273H298.549V301H297.304V299.982H297.198C297.121 300.121 297.01 300.28 296.865 300.459C296.723 300.638 296.527 300.794 296.277 300.928C296.027 301.061 295.704 301.128 295.306 301.128ZM295.587 300.041C295.954 300.041 296.263 299.945 296.516 299.751C296.772 299.555 296.965 299.284 297.096 298.938C297.229 298.591 297.296 298.187 297.296 297.727C297.296 297.273 297.231 296.875 297.1 296.534C296.969 296.193 296.777 295.928 296.525 295.737C296.272 295.547 295.959 295.452 295.587 295.452C295.204 295.452 294.884 295.551 294.628 295.75C294.373 295.949 294.179 296.22 294.049 296.564C293.921 296.908 293.857 297.295 293.857 297.727C293.857 298.165 293.922 298.558 294.053 298.908C294.184 299.257 294.377 299.534 294.633 299.739C294.891 299.94 295.209 300.041 295.587 300.041ZM301.377 292.273V301H300.103V292.273H301.377ZM305.649 301.132C305.004 301.132 304.448 300.994 303.982 300.719C303.519 300.44 303.161 300.05 302.909 299.547C302.659 299.041 302.534 298.449 302.534 297.77C302.534 297.099 302.659 296.509 302.909 295.997C303.161 295.486 303.514 295.087 303.965 294.8C304.42 294.513 304.951 294.369 305.559 294.369C305.928 294.369 306.286 294.43 306.633 294.553C306.98 294.675 307.291 294.866 307.566 295.128C307.842 295.389 308.059 295.729 308.218 296.146C308.377 296.561 308.457 297.065 308.457 297.659V298.111H303.254V297.156H307.208C307.208 296.821 307.14 296.524 307.004 296.266C306.867 296.004 306.676 295.798 306.428 295.648C306.184 295.497 305.897 295.422 305.568 295.422C305.21 295.422 304.897 295.51 304.63 295.686C304.366 295.859 304.161 296.087 304.016 296.368C303.874 296.646 303.803 296.949 303.803 297.276V298.021C303.803 298.459 303.88 298.831 304.034 299.138C304.19 299.445 304.407 299.679 304.685 299.841C304.964 300 305.289 300.08 305.661 300.08C305.903 300.08 306.123 300.045 306.322 299.977C306.521 299.906 306.693 299.801 306.837 299.662C306.982 299.523 307.093 299.351 307.17 299.146L308.376 299.364C308.279 299.719 308.106 300.03 307.856 300.297C307.609 300.561 307.298 300.767 306.923 300.915C306.551 301.06 306.126 301.132 305.649 301.132ZM315.574 294.455V295.477H311.998V294.455H315.574ZM312.957 292.886H314.231V299.078C314.231 299.325 314.268 299.511 314.342 299.636C314.416 299.759 314.511 299.842 314.628 299.888C314.747 299.93 314.876 299.952 315.015 299.952C315.118 299.952 315.207 299.945 315.284 299.93C315.361 299.916 315.42 299.905 315.463 299.896L315.693 300.949C315.619 300.977 315.514 301.006 315.378 301.034C315.241 301.065 315.071 301.082 314.866 301.085C314.531 301.091 314.219 301.031 313.929 300.906C313.639 300.781 313.405 300.588 313.226 300.327C313.047 300.065 312.957 299.737 312.957 299.342V292.886ZM316.719 301V294.455H317.993V301H316.719ZM317.363 293.445C317.141 293.445 316.951 293.371 316.792 293.223C316.635 293.072 316.557 292.893 316.557 292.686C316.557 292.476 316.635 292.297 316.792 292.149C316.951 291.999 317.141 291.923 317.363 291.923C317.584 291.923 317.773 291.999 317.929 292.149C318.088 292.297 318.168 292.476 318.168 292.686C318.168 292.893 318.088 293.072 317.929 293.223C317.773 293.371 317.584 293.445 317.363 293.445ZM319.443 301V294.455H320.666V295.52H320.747C320.884 295.159 321.107 294.878 321.416 294.676C321.726 294.472 322.097 294.369 322.529 294.369C322.966 294.369 323.333 294.472 323.628 294.676C323.926 294.881 324.147 295.162 324.289 295.52H324.357C324.513 295.17 324.762 294.892 325.103 294.685C325.443 294.474 325.85 294.369 326.321 294.369C326.915 294.369 327.399 294.555 327.774 294.928C328.152 295.3 328.341 295.861 328.341 296.611V301H327.067V296.73C327.067 296.287 326.946 295.966 326.705 295.767C326.463 295.568 326.175 295.469 325.84 295.469C325.425 295.469 325.103 295.597 324.872 295.852C324.642 296.105 324.527 296.43 324.527 296.828V301H323.257V296.649C323.257 296.294 323.147 296.009 322.925 295.793C322.703 295.577 322.415 295.469 322.06 295.469C321.818 295.469 321.595 295.533 321.391 295.661C321.189 295.786 321.026 295.96 320.901 296.185C320.779 296.409 320.718 296.669 320.718 296.964V301H319.443ZM332.606 301.132C331.961 301.132 331.406 300.994 330.94 300.719C330.477 300.44 330.119 300.05 329.866 299.547C329.616 299.041 329.491 298.449 329.491 297.77C329.491 297.099 329.616 296.509 329.866 295.997C330.119 295.486 330.471 295.087 330.923 294.8C331.377 294.513 331.908 294.369 332.516 294.369C332.886 294.369 333.244 294.43 333.59 294.553C333.937 294.675 334.248 294.866 334.524 295.128C334.799 295.389 335.016 295.729 335.176 296.146C335.335 296.561 335.414 297.065 335.414 297.659V298.111H330.211V297.156H334.166C334.166 296.821 334.097 296.524 333.961 296.266C333.825 296.004 333.633 295.798 333.386 295.648C333.141 295.497 332.854 295.422 332.525 295.422C332.167 295.422 331.854 295.51 331.587 295.686C331.323 295.859 331.119 296.087 330.974 296.368C330.832 296.646 330.761 296.949 330.761 297.276V298.021C330.761 298.459 330.837 298.831 330.991 299.138C331.147 299.445 331.364 299.679 331.643 299.841C331.921 300 332.247 300.08 332.619 300.08C332.86 300.08 333.08 300.045 333.279 299.977C333.478 299.906 333.65 299.801 333.795 299.662C333.94 299.523 334.051 299.351 334.127 299.146L335.333 299.364C335.237 299.719 335.063 300.03 334.813 300.297C334.566 300.561 334.255 300.767 333.88 300.915C333.508 301.06 333.083 301.132 332.606 301.132Z"/><rect width="67.2" height="38.4" x="114" y="279" fill="#94A3B8" rx="8"/><path fill="#fff" d="M138.156 302V293.273H139.472V300.866H143.427V302H138.156ZM144.563 302V295.455H145.837V302H144.563ZM145.206 294.445C144.985 294.445 144.794 294.371 144.635 294.223C144.479 294.072 144.401 293.893 144.401 293.686C144.401 293.476 144.479 293.297 144.635 293.149C144.794 292.999 144.985 292.923 145.206 292.923C145.428 292.923 145.617 292.999 145.773 293.149C145.932 293.297 146.012 293.476 146.012 293.686C146.012 293.893 145.932 294.072 145.773 294.223C145.617 294.371 145.428 294.445 145.206 294.445ZM148.561 298.114V302H147.287V295.455H148.51V296.52H148.591C148.742 296.173 148.977 295.895 149.298 295.685C149.622 295.474 150.03 295.369 150.521 295.369C150.967 295.369 151.358 295.463 151.693 295.651C152.029 295.835 152.288 296.111 152.473 296.477C152.658 296.844 152.75 297.297 152.75 297.837V302H151.476V297.99C151.476 297.516 151.352 297.145 151.105 296.878C150.858 296.608 150.519 296.473 150.087 296.473C149.791 296.473 149.529 296.537 149.298 296.665C149.071 296.793 148.891 296.98 148.757 297.227C148.627 297.472 148.561 297.767 148.561 298.114ZM157.25 295.455V296.477H153.675V295.455H157.25ZM154.634 293.886H155.908V300.078C155.908 300.325 155.945 300.511 156.019 300.636C156.093 300.759 156.188 300.842 156.304 300.888C156.424 300.93 156.553 300.952 156.692 300.952C156.794 300.952 156.884 300.945 156.961 300.93C157.037 300.916 157.097 300.905 157.14 300.896L157.37 301.949C157.296 301.977 157.191 302.006 157.054 302.034C156.918 302.065 156.747 302.082 156.543 302.085C156.208 302.091 155.895 302.031 155.605 301.906C155.316 301.781 155.081 301.588 154.902 301.327C154.723 301.065 154.634 300.737 154.634 300.342V293.886Z"/><path fill="#94A3B8" d="M338.646 221.646C338.451 221.842 338.451 222.158 338.646 222.354L341.828 225.536C342.024 225.731 342.34 225.731 342.536 225.536C342.731 225.34 342.731 225.024 342.536 224.828L339.707 222L342.536 219.172C342.731 218.976 342.731 218.66 342.536 218.464C342.34 218.269 342.024 218.269 341.828 218.464L338.646 221.646ZM440.354 222.354C440.549 222.158 440.549 221.842 440.354 221.646L437.172 218.464C436.976 218.269 436.66 218.269 436.464 218.464C436.269 218.66 436.269 218.976 436.464 219.172L439.293 222L436.464 224.828C436.269 225.024 436.269 225.34 436.464 225.536C436.66 225.731 436.976 225.731 437.172 225.536L440.354 222.354ZM339 222.5H440V221.5H339V222.5Z"/><path fill="#94A3B8" d="M368.304 209.273V218H366.988V209.273H368.304ZM372.306 218.128C371.778 218.128 371.306 217.993 370.891 217.723C370.479 217.45 370.155 217.062 369.92 216.56C369.687 216.054 369.57 215.447 369.57 214.74C369.57 214.033 369.688 213.428 369.924 212.925C370.162 212.422 370.489 212.037 370.904 211.77C371.319 211.503 371.789 211.369 372.314 211.369C372.721 211.369 373.047 211.438 373.295 211.574C373.545 211.707 373.738 211.864 373.874 212.043C374.013 212.222 374.121 212.379 374.198 212.516H374.275V209.273H375.549V218H374.305V216.982H374.198C374.121 217.121 374.01 217.28 373.866 217.459C373.724 217.638 373.528 217.794 373.278 217.928C373.028 218.061 372.704 218.128 372.306 218.128ZM372.587 217.041C372.954 217.041 373.263 216.945 373.516 216.751C373.772 216.555 373.965 216.284 374.096 215.938C374.229 215.591 374.296 215.187 374.296 214.727C374.296 214.273 374.231 213.875 374.1 213.534C373.969 213.193 373.778 212.928 373.525 212.737C373.272 212.547 372.959 212.452 372.587 212.452C372.204 212.452 371.884 212.551 371.628 212.75C371.373 212.949 371.18 213.22 371.049 213.564C370.921 213.908 370.857 214.295 370.857 214.727C370.857 215.165 370.922 215.558 371.053 215.908C371.184 216.257 371.377 216.534 371.633 216.739C371.891 216.94 372.209 217.041 372.587 217.041ZM378.378 209.273V218H377.103V209.273H378.378ZM382.649 218.132C382.004 218.132 381.448 217.994 380.982 217.719C380.519 217.44 380.161 217.05 379.909 216.547C379.659 216.041 379.534 215.449 379.534 214.77C379.534 214.099 379.659 213.509 379.909 212.997C380.161 212.486 380.514 212.087 380.965 211.8C381.42 211.513 381.951 211.369 382.559 211.369C382.928 211.369 383.286 211.43 383.633 211.553C383.98 211.675 384.291 211.866 384.566 212.128C384.842 212.389 385.059 212.729 385.218 213.146C385.377 213.561 385.457 214.065 385.457 214.659V215.111H380.254V214.156H384.208C384.208 213.821 384.14 213.524 384.004 213.266C383.867 213.004 383.676 212.798 383.428 212.648C383.184 212.497 382.897 212.422 382.568 212.422C382.21 212.422 381.897 212.51 381.63 212.686C381.366 212.859 381.161 213.087 381.017 213.368C380.875 213.646 380.803 213.949 380.803 214.276V215.021C380.803 215.459 380.88 215.831 381.034 216.138C381.19 216.445 381.407 216.679 381.686 216.841C381.964 217 382.289 217.08 382.661 217.08C382.903 217.08 383.123 217.045 383.322 216.977C383.521 216.906 383.693 216.801 383.838 216.662C383.982 216.523 384.093 216.351 384.17 216.146L385.376 216.364C385.279 216.719 385.106 217.03 384.856 217.297C384.609 217.561 384.298 217.767 383.923 217.915C383.551 218.06 383.126 218.132 382.649 218.132ZM392.574 211.455V212.477H388.999V211.455H392.574ZM389.957 209.886H391.231V216.078C391.231 216.325 391.268 216.511 391.342 216.636C391.416 216.759 391.511 216.842 391.628 216.888C391.747 216.93 391.876 216.952 392.016 216.952C392.118 216.952 392.207 216.945 392.284 216.93C392.361 216.916 392.42 216.905 392.463 216.896L392.693 217.949C392.619 217.977 392.514 218.006 392.378 218.034C392.241 218.065 392.071 218.082 391.866 218.085C391.531 218.091 391.219 218.031 390.929 217.906C390.639 217.781 390.405 217.588 390.226 217.327C390.047 217.065 389.957 216.737 389.957 216.342V209.886ZM393.719 218V211.455H394.993V218H393.719ZM394.363 210.445C394.141 210.445 393.951 210.371 393.792 210.223C393.635 210.072 393.557 209.893 393.557 209.686C393.557 209.476 393.635 209.297 393.792 209.149C393.951 208.999 394.141 208.923 394.363 208.923C394.584 208.923 394.773 208.999 394.929 209.149C395.089 209.297 395.168 209.476 395.168 209.686C395.168 209.893 395.089 210.072 394.929 210.223C394.773 210.371 394.584 210.445 394.363 210.445ZM396.444 218V211.455H397.667V212.52H397.747C397.884 212.159 398.107 211.878 398.417 211.676C398.726 211.472 399.097 211.369 399.529 211.369C399.966 211.369 400.333 211.472 400.628 211.676C400.926 211.881 401.147 212.162 401.289 212.52H401.357C401.513 212.17 401.762 211.892 402.103 211.685C402.444 211.474 402.85 211.369 403.321 211.369C403.915 211.369 404.399 211.555 404.774 211.928C405.152 212.3 405.341 212.861 405.341 213.611V218H404.067V213.73C404.067 213.287 403.946 212.966 403.705 212.767C403.463 212.568 403.175 212.469 402.84 212.469C402.425 212.469 402.103 212.597 401.872 212.852C401.642 213.105 401.527 213.43 401.527 213.828V218H400.257V213.649C400.257 213.294 400.147 213.009 399.925 212.793C399.703 212.577 399.415 212.469 399.06 212.469C398.819 212.469 398.596 212.533 398.391 212.661C398.189 212.786 398.026 212.96 397.901 213.185C397.779 213.409 397.718 213.669 397.718 213.964V218H396.444ZM409.606 218.132C408.961 218.132 408.406 217.994 407.94 217.719C407.477 217.44 407.119 217.05 406.866 216.547C406.616 216.041 406.491 215.449 406.491 214.77C406.491 214.099 406.616 213.509 406.866 212.997C407.119 212.486 407.471 212.087 407.923 211.8C408.377 211.513 408.909 211.369 409.517 211.369C409.886 211.369 410.244 211.43 410.59 211.553C410.937 211.675 411.248 211.866 411.524 212.128C411.799 212.389 412.017 212.729 412.176 213.146C412.335 213.561 412.414 214.065 412.414 214.659V215.111H407.211V214.156H411.166C411.166 213.821 411.097 213.524 410.961 213.266C410.825 213.004 410.633 212.798 410.386 212.648C410.142 212.497 409.855 212.422 409.525 212.422C409.167 212.422 408.855 212.51 408.588 212.686C408.323 212.859 408.119 213.087 407.974 213.368C407.832 213.646 407.761 213.949 407.761 214.276V215.021C407.761 215.459 407.838 215.831 407.991 216.138C408.147 216.445 408.365 216.679 408.643 216.841C408.921 217 409.247 217.08 409.619 217.08C409.86 217.08 410.08 217.045 410.279 216.977C410.478 216.906 410.65 216.801 410.795 216.662C410.94 216.523 411.051 216.351 411.127 216.146L412.333 216.364C412.237 216.719 412.063 217.03 411.813 217.297C411.566 217.561 411.255 217.767 410.88 217.915C410.508 218.06 410.083 218.132 409.606 218.132Z"/><rect width="222" height="38.4" x="114" y="196" fill="#F43F5E" rx="8"/><path fill="#fff" d="M212.275 219V210.273H215.471C216.091 210.273 216.603 210.375 217.01 210.58C217.416 210.781 217.72 211.055 217.922 211.402C218.123 211.746 218.224 212.134 218.224 212.565C218.224 212.929 218.157 213.236 218.024 213.486C217.89 213.733 217.711 213.932 217.487 214.082C217.265 214.23 217.021 214.338 216.754 214.406V214.491C217.044 214.506 217.326 214.599 217.602 214.773C217.88 214.943 218.111 215.186 218.292 215.501C218.474 215.817 218.565 216.2 218.565 216.652C218.565 217.098 218.46 217.499 218.25 217.854C218.042 218.206 217.721 218.486 217.287 218.693C216.852 218.898 216.297 219 215.62 219H212.275ZM213.592 217.871H215.493C216.123 217.871 216.575 217.749 216.848 217.504C217.12 217.26 217.257 216.955 217.257 216.588C217.257 216.312 217.187 216.06 217.048 215.83C216.909 215.599 216.71 215.416 216.451 215.28C216.196 215.143 215.892 215.075 215.54 215.075H213.592V217.871ZM213.592 214.048H215.356C215.652 214.048 215.917 213.991 216.153 213.878C216.392 213.764 216.581 213.605 216.72 213.401C216.862 213.193 216.933 212.949 216.933 212.668C216.933 212.307 216.807 212.004 216.554 211.76C216.301 211.516 215.913 211.393 215.39 211.393H213.592V214.048ZM223.907 216.286V212.455H225.185V219H223.932V217.866H223.864C223.714 218.216 223.472 218.507 223.14 218.74C222.81 218.97 222.4 219.085 221.908 219.085C221.488 219.085 221.116 218.993 220.792 218.808C220.471 218.621 220.218 218.344 220.033 217.977C219.852 217.611 219.761 217.158 219.761 216.618V212.455H221.035V216.464C221.035 216.911 221.158 217.266 221.405 217.53C221.653 217.794 221.974 217.926 222.369 217.926C222.607 217.926 222.844 217.866 223.08 217.747C223.319 217.628 223.516 217.447 223.673 217.206C223.832 216.964 223.91 216.658 223.907 216.286ZM226.633 219V212.455H227.907V219H226.633ZM227.277 211.445C227.055 211.445 226.865 211.371 226.706 211.223C226.55 211.072 226.471 210.893 226.471 210.686C226.471 210.476 226.55 210.297 226.706 210.149C226.865 209.999 227.055 209.923 227.277 209.923C227.498 209.923 227.687 209.999 227.844 210.149C228.003 210.297 228.082 210.476 228.082 210.686C228.082 210.893 228.003 211.072 227.844 211.223C227.687 211.371 227.498 211.445 227.277 211.445ZM230.632 210.273V219H229.358V210.273H230.632ZM234.532 219.128C234.004 219.128 233.532 218.993 233.117 218.723C232.705 218.45 232.382 218.062 232.146 217.56C231.913 217.054 231.796 216.447 231.796 215.74C231.796 215.033 231.914 214.428 232.15 213.925C232.389 213.422 232.715 213.037 233.13 212.77C233.545 212.503 234.015 212.369 234.541 212.369C234.947 212.369 235.274 212.438 235.521 212.574C235.771 212.707 235.964 212.864 236.1 213.043C236.24 213.222 236.348 213.379 236.424 213.516H236.501V210.273H237.775V219H236.531V217.982H236.424C236.348 218.121 236.237 218.28 236.092 218.459C235.95 218.638 235.754 218.794 235.504 218.928C235.254 219.061 234.93 219.128 234.532 219.128ZM234.813 218.041C235.18 218.041 235.49 217.945 235.742 217.751C235.998 217.555 236.191 217.284 236.322 216.938C236.455 216.591 236.522 216.187 236.522 215.727C236.522 215.273 236.457 214.875 236.326 214.534C236.196 214.193 236.004 213.928 235.751 213.737C235.498 213.547 235.186 213.452 234.813 213.452C234.43 213.452 234.11 213.551 233.855 213.75C233.599 213.949 233.406 214.22 233.275 214.564C233.147 214.908 233.083 215.295 233.083 215.727C233.083 216.165 233.149 216.558 233.279 216.908C233.41 217.257 233.603 217.534 233.859 217.739C234.117 217.94 234.436 218.041 234.813 218.041Z"/><rect width="228" height="38.4" x="213" y="113" fill="#6366F1" rx="8"/><path fill="#fff" d="M315.02 128.406V127.273H321.774V128.406H319.051V136H317.739V128.406H315.02ZM324.772 136.132C324.128 136.132 323.572 135.994 323.106 135.719C322.643 135.44 322.285 135.05 322.032 134.547C321.782 134.041 321.657 133.449 321.657 132.77C321.657 132.099 321.782 131.509 322.032 130.997C322.285 130.486 322.638 130.087 323.089 129.8C323.544 129.513 324.075 129.369 324.683 129.369C325.052 129.369 325.41 129.43 325.757 129.553C326.103 129.675 326.414 129.866 326.69 130.128C326.966 130.389 327.183 130.729 327.342 131.146C327.501 131.561 327.581 132.065 327.581 132.659V133.111H322.378V132.156H326.332C326.332 131.821 326.264 131.524 326.128 131.266C325.991 131.004 325.799 130.798 325.552 130.648C325.308 130.497 325.021 130.422 324.691 130.422C324.334 130.422 324.021 130.51 323.754 130.686C323.49 130.859 323.285 131.087 323.14 131.368C322.998 131.646 322.927 131.949 322.927 132.276V133.021C322.927 133.459 323.004 133.831 323.157 134.138C323.314 134.445 323.531 134.679 323.809 134.841C324.088 135 324.413 135.08 324.785 135.08C325.027 135.08 325.247 135.045 325.446 134.977C325.645 134.906 325.816 134.801 325.961 134.662C326.106 134.523 326.217 134.351 326.294 134.146L327.5 134.364C327.403 134.719 327.23 135.03 326.98 135.297C326.733 135.561 326.422 135.767 326.047 135.915C325.674 136.06 325.25 136.132 324.772 136.132ZM333.635 131.053L332.48 131.257C332.432 131.109 332.355 130.969 332.25 130.835C332.148 130.702 332.009 130.592 331.833 130.507C331.657 130.422 331.436 130.379 331.172 130.379C330.811 130.379 330.51 130.46 330.269 130.622C330.027 130.781 329.907 130.987 329.907 131.24C329.907 131.459 329.987 131.635 330.149 131.768C330.311 131.902 330.573 132.011 330.934 132.097L331.973 132.335C332.576 132.474 333.024 132.689 333.32 132.979C333.615 133.268 333.763 133.645 333.763 134.108C333.763 134.5 333.649 134.849 333.422 135.156C333.198 135.46 332.884 135.699 332.48 135.872C332.08 136.045 331.615 136.132 331.087 136.132C330.354 136.132 329.756 135.976 329.293 135.663C328.83 135.348 328.546 134.901 328.441 134.321L329.672 134.134C329.749 134.455 329.907 134.697 330.145 134.862C330.384 135.024 330.695 135.105 331.078 135.105C331.496 135.105 331.83 135.018 332.08 134.845C332.33 134.669 332.455 134.455 332.455 134.202C332.455 133.997 332.378 133.825 332.225 133.686C332.074 133.547 331.843 133.442 331.53 133.371L330.422 133.128C329.811 132.989 329.36 132.767 329.067 132.463C328.777 132.159 328.632 131.774 328.632 131.308C328.632 130.922 328.74 130.584 328.956 130.294C329.172 130.004 329.47 129.778 329.851 129.616C330.232 129.452 330.668 129.369 331.159 129.369C331.867 129.369 332.424 129.523 332.83 129.83C333.236 130.134 333.505 130.541 333.635 131.053ZM337.955 129.455V130.477H334.38V129.455H337.955ZM335.339 127.886H336.613V134.078C336.613 134.325 336.65 134.511 336.724 134.636C336.798 134.759 336.893 134.842 337.009 134.888C337.129 134.93 337.258 134.952 337.397 134.952C337.499 134.952 337.589 134.945 337.666 134.93C337.742 134.916 337.802 134.905 337.845 134.896L338.075 135.949C338.001 135.977 337.896 136.006 337.759 136.034C337.623 136.065 337.453 136.082 337.248 136.085C336.913 136.091 336.6 136.031 336.31 135.906C336.021 135.781 335.786 135.588 335.607 135.327C335.428 135.065 335.339 134.737 335.339 134.342V127.886Z"/><path fill="#94A3B8" d="M113.646 138.646C113.451 138.842 113.451 139.158 113.646 139.354L116.828 142.536C117.024 142.731 117.34 142.731 117.536 142.536C117.731 142.34 117.731 142.024 117.536 141.828L114.707 139L117.536 136.172C117.731 135.976 117.731 135.66 117.536 135.464C117.34 135.269 117.024 135.269 116.828 135.464L113.646 138.646ZM209.354 139.354C209.549 139.158 209.549 138.842 209.354 138.646L206.172 135.464C205.976 135.269 205.66 135.269 205.464 135.464C205.269 135.66 205.269 135.976 205.464 136.172L208.293 139L205.464 141.828C205.269 142.024 205.269 142.34 205.464 142.536C205.66 142.731 205.976 142.731 206.172 142.536L209.354 139.354ZM114 139.5H209V138.5H114V139.5Z"/><path fill="#94A3B8" d="M140.304 126.273V135H138.987V126.273H140.304ZM144.306 135.128C143.777 135.128 143.306 134.993 142.891 134.723C142.479 134.45 142.155 134.062 141.919 133.56C141.687 133.054 141.57 132.447 141.57 131.74C141.57 131.033 141.688 130.428 141.924 129.925C142.162 129.422 142.489 129.037 142.904 128.77C143.319 128.503 143.789 128.369 144.314 128.369C144.721 128.369 145.047 128.438 145.294 128.574C145.544 128.707 145.738 128.864 145.874 129.043C146.013 129.222 146.121 129.379 146.198 129.516H146.275V126.273H147.549V135H146.304V133.982H146.198C146.121 134.121 146.01 134.28 145.866 134.459C145.723 134.638 145.527 134.794 145.277 134.928C145.027 135.061 144.704 135.128 144.306 135.128ZM144.587 134.041C144.954 134.041 145.263 133.945 145.516 133.751C145.772 133.555 145.965 133.284 146.096 132.938C146.229 132.591 146.296 132.187 146.296 131.727C146.296 131.273 146.231 130.875 146.1 130.534C145.969 130.193 145.777 129.928 145.525 129.737C145.272 129.547 144.959 129.452 144.587 129.452C144.204 129.452 143.884 129.551 143.628 129.75C143.373 129.949 143.179 130.22 143.049 130.564C142.921 130.908 142.857 131.295 142.857 131.727C142.857 132.165 142.922 132.558 143.053 132.908C143.184 133.257 143.377 133.534 143.633 133.739C143.891 133.94 144.209 134.041 144.587 134.041ZM150.377 126.273V135H149.103V126.273H150.377ZM154.649 135.132C154.004 135.132 153.448 134.994 152.982 134.719C152.519 134.44 152.161 134.05 151.909 133.547C151.659 133.041 151.534 132.449 151.534 131.77C151.534 131.099 151.659 130.509 151.909 129.997C152.161 129.486 152.514 129.087 152.965 128.8C153.42 128.513 153.951 128.369 154.559 128.369C154.928 128.369 155.286 128.43 155.633 128.553C155.98 128.675 156.291 128.866 156.566 129.128C156.842 129.389 157.059 129.729 157.218 130.146C157.377 130.561 157.457 131.065 157.457 131.659V132.111H152.254V131.156H156.208C156.208 130.821 156.14 130.524 156.004 130.266C155.867 130.004 155.676 129.798 155.428 129.648C155.184 129.497 154.897 129.422 154.568 129.422C154.21 129.422 153.897 129.51 153.63 129.686C153.366 129.859 153.161 130.087 153.016 130.368C152.874 130.646 152.803 130.949 152.803 131.276V132.021C152.803 132.459 152.88 132.831 153.034 133.138C153.19 133.445 153.407 133.679 153.686 133.841C153.964 134 154.289 134.08 154.661 134.08C154.903 134.08 155.123 134.045 155.322 133.977C155.521 133.906 155.693 133.801 155.838 133.662C155.982 133.523 156.093 133.351 156.17 133.146L157.376 133.364C157.279 133.719 157.106 134.03 156.856 134.297C156.609 134.561 156.298 134.767 155.923 134.915C155.551 135.06 155.126 135.132 154.649 135.132ZM164.574 128.455V129.477H160.998V128.455H164.574ZM161.957 126.886H163.231V133.078C163.231 133.325 163.268 133.511 163.342 133.636C163.416 133.759 163.511 133.842 163.628 133.888C163.747 133.93 163.876 133.952 164.015 133.952C164.118 133.952 164.207 133.945 164.284 133.93C164.361 133.916 164.42 133.905 164.463 133.896L164.693 134.949C164.619 134.977 164.514 135.006 164.378 135.034C164.241 135.065 164.071 135.082 163.866 135.085C163.531 135.091 163.219 135.031 162.929 134.906C162.639 134.781 162.405 134.588 162.226 134.327C162.047 134.065 161.957 133.737 161.957 133.342V126.886ZM165.719 135V128.455H166.993V135H165.719ZM166.363 127.445C166.141 127.445 165.951 127.371 165.792 127.223C165.635 127.072 165.557 126.893 165.557 126.686C165.557 126.476 165.635 126.297 165.792 126.149C165.951 125.999 166.141 125.923 166.363 125.923C166.584 125.923 166.773 125.999 166.929 126.149C167.088 126.297 167.168 126.476 167.168 126.686C167.168 126.893 167.088 127.072 166.929 127.223C166.773 127.371 166.584 127.445 166.363 127.445ZM168.443 135V128.455H169.666V129.52H169.747C169.884 129.159 170.107 128.878 170.416 128.676C170.726 128.472 171.097 128.369 171.529 128.369C171.966 128.369 172.333 128.472 172.628 128.676C172.926 128.881 173.147 129.162 173.289 129.52H173.357C173.513 129.17 173.762 128.892 174.103 128.685C174.443 128.474 174.85 128.369 175.321 128.369C175.915 128.369 176.399 128.555 176.774 128.928C177.152 129.3 177.341 129.861 177.341 130.611V135H176.067V130.73C176.067 130.287 175.946 129.966 175.705 129.767C175.463 129.568 175.175 129.469 174.84 129.469C174.425 129.469 174.103 129.597 173.872 129.852C173.642 130.105 173.527 130.43 173.527 130.828V135H172.257V130.649C172.257 130.294 172.147 130.009 171.925 129.793C171.703 129.577 171.415 129.469 171.06 129.469C170.818 129.469 170.595 129.533 170.391 129.661C170.189 129.786 170.026 129.96 169.901 130.185C169.779 130.409 169.718 130.669 169.718 130.964V135H168.443ZM181.606 135.132C180.961 135.132 180.406 134.994 179.94 134.719C179.477 134.44 179.119 134.05 178.866 133.547C178.616 133.041 178.491 132.449 178.491 131.77C178.491 131.099 178.616 130.509 178.866 129.997C179.119 129.486 179.471 129.087 179.923 128.8C180.377 128.513 180.908 128.369 181.516 128.369C181.886 128.369 182.244 128.43 182.59 128.553C182.937 128.675 183.248 128.866 183.524 129.128C183.799 129.389 184.016 129.729 184.176 130.146C184.335 130.561 184.414 131.065 184.414 131.659V132.111H179.211V131.156H183.166C183.166 130.821 183.097 130.524 182.961 130.266C182.825 130.004 182.633 129.798 182.386 129.648C182.141 129.497 181.855 129.422 181.525 129.422C181.167 129.422 180.855 129.51 180.587 129.686C180.323 129.859 180.119 130.087 179.974 130.368C179.832 130.646 179.761 130.949 179.761 131.276V132.021C179.761 132.459 179.837 132.831 179.991 133.138C180.147 133.445 180.364 133.679 180.643 133.841C180.921 134 181.247 134.08 181.619 134.08C181.86 134.08 182.08 134.045 182.279 133.977C182.478 133.906 182.65 133.801 182.795 133.662C182.94 133.523 183.051 133.351 183.127 133.146L184.333 133.364C184.237 133.719 184.063 134.03 183.813 134.297C183.566 134.561 183.255 134.767 182.88 134.915C182.508 135.06 182.083 135.132 181.606 135.132Z"/></svg>